# Blender v3.6.5 OBJ File: 'Enviro04.blend'
# www.blender.org
mtllib Arcade_Fighter001.mtl
o Arcade_Fighter.001
v -0.368396 0.000668 0.394493
v -0.206461 2.126287 0.394492
v -0.365261 0.000668 -0.397397
v -0.203326 2.126287 -0.397398
v 0.365261 0.000668 0.397397
v 0.365261 1.968081 0.397397
v 0.368396 0.000668 -0.394493
v 0.368396 1.968081 -0.394493
v -0.518696 1.272719 0.394378
v -0.515561 1.272719 -0.397512
v 0.368396 1.272719 -0.394493
v 0.365261 1.272719 0.397397
v -0.212800 1.833775 0.394488
v -0.209852 1.832586 -0.397403
v 0.368396 1.814521 -0.394493
v 0.365261 1.814521 0.397397
v -0.515561 1.038919 -0.397512
v 0.368396 1.038919 -0.394493
v 0.365261 1.038919 0.397397
v -0.518696 1.038919 0.394378
v -0.365261 0.983013 -0.397397
v -0.368396 0.983013 0.394492
v -0.308507 1.323073 -0.397354
v -0.311455 1.324261 0.394536
v -0.161470 1.804383 0.394650
v -0.158522 1.803195 -0.397240
vt 0.889121 0.530710
vt 0.889122 0.562466
vt 0.803151 0.562466
vt 0.803151 0.530581
vt 0.959330 0.514250
vt 0.958640 0.545290
vt 0.898216 0.528570
vt 0.898216 0.512340
vt 0.940199 0.400735
vt 0.940199 0.406965
vt 0.908073 0.406965
vt 0.908073 0.400735
vt 0.898548 0.512340
vt 0.898548 0.528570
vt 0.958971 0.545290
vt 0.959641 0.514375
vt 0.947500 0.370625
vt 0.986862 0.370625
vt 0.986862 0.409988
vt 0.947500 0.409988
vt 0.950703 0.335166
vt 0.988149 0.335166
vt 0.988149 0.372612
vt 0.950703 0.372612
vt 0.898548 0.430370
vt 0.898548 0.455079
vt 0.991970 0.455079
vt 0.991970 0.430370
vt 0.940199 0.369271
vt 0.940199 0.378755
vt 0.908073 0.378755
vt 0.908073 0.369271
vt 0.991639 0.430370
vt 0.991639 0.455079
vt 0.898216 0.455079
vt 0.898216 0.430370
vt 0.888896 0.431174
vt 0.888896 0.456556
vt 0.802925 0.456556
vt 0.802925 0.431174
vt 0.954216 0.511269
vt 0.953905 0.511143
vt 0.985328 0.328818
vt 0.985313 0.324004
vt 0.911040 0.324281
vt 0.911055 0.329095
vt 0.887932 0.425105
vt 0.887919 0.431174
vt 0.801949 0.431174
vt 0.801961 0.425105
vt 0.975754 0.424461
vt 0.976086 0.424461
vt 0.898548 0.320641
vt 0.976086 0.320641
vt 0.940199 0.327151
vt 0.908073 0.327151
vt 0.975754 0.320641
vt 0.898216 0.320641
vt 0.887932 0.318458
vt 0.801961 0.318458
vt 0.975192 0.477903
vt 0.997094 0.477887
vt 0.997406 0.561579
vt 0.975523 0.561596
vt 0.969756 0.460401
vt 0.970068 0.460527
vt 0.889725 0.461064
vt 0.889738 0.514699
vt 0.801275 0.514566
vt 0.801262 0.460931
vn -0.9998 0.0219 -0.0039
vn 0.0051 0.0027 -1.0000
vn 0.0050 -0.0001 -1.0000
vn 0.0050 0.0019 -1.0000
vn 1.0000 -0.0000 0.0040
vn -0.0050 -0.0019 1.0000
vn -0.0050 0.0001 1.0000
vn -0.0051 -0.0027 1.0000
vn -0.0000 -1.0000 0.0000
vn 0.2667 0.9638 0.0011
vn -0.0035 -0.0041 1.0000
vn -0.0037 0.0064 1.0000
vn -0.0034 0.0081 1.0000
vn -0.0034 -0.0055 1.0000
vn 0.0034 0.0055 -1.0000
vn 0.0034 -0.0082 -1.0000
vn 0.0037 -0.0066 -1.0000
vn 0.0035 0.0041 -1.0000
vn -1.0000 -0.0000 -0.0040
vn -0.0047 0.0003 1.0000
vn 0.0047 -0.0003 -1.0000
vn -0.4969 -0.8678 -0.0005
vn -0.3486 -0.9373 -0.0014
vn 0.0039 0.0008 -1.0000
vn -0.0039 -0.0008 1.0000
vn -0.0040 0.0000 1.0000
vn 0.0040 -0.0000 -1.0000
vn -0.2388 0.9711 -0.0016
vn 0.0045 -0.0021 -1.0000
vn -0.0045 0.0020 1.0000
vn -0.9545 0.2982 -0.0040
usemtl MAT_Enviro_Props_Atlas
s 1
f 13/1/1 2/2/1 4/3/1 14/4/1
f 14/5/2 4/6/3 8/7/3 15/8/4
f 15/9/5 8/10/5 6/11/5 16/12/5
f 16/13/6 6/14/7 2/15/7 13/16/8
f 3/17/9 7/18/9 5/19/9 1/20/9
f 8/21/10 4/22/10 2/23/10 6/24/10
f 19/25/11 12/26/12 9/27/13 20/28/14
f 18/29/5 11/30/5 12/31/5 19/32/5
f 17/33/15 10/34/16 11/35/17 18/36/18
f 20/37/19 9/38/19 10/39/19 17/40/19
f 16/13/6 13/16/8 25/41/20
f 26/42/21 14/5/2 15/8/4
f 25/43/22 13/44/22 14/45/22 26/46/22
f 22/47/23 20/48/23 17/49/23 21/50/23
f 21/51/24 17/33/15 18/36/18
f 19/25/11 20/28/14 22/52/25
f 5/53/26 19/25/11 22/52/25 1/54/26
f 7/55/5 18/29/5 19/32/5 5/56/5
f 3/57/27 21/51/24 18/36/18 7/58/27
f 1/59/19 22/47/19 21/50/19 3/60/19
f 9/61/28 24/62/28 23/63/28 10/64/28
f 10/34/16 23/65/29 11/35/17
f 12/26/12 24/66/30 9/27/13
f 24/67/31 25/68/31 26/69/31 23/70/31
f 23/65/29 26/42/21 15/8/4 11/35/17
f 11/30/5 15/9/5 16/12/5 12/31/5
f 12/26/12 16/13/6 25/41/20 24/66/30
