# Blender v3.6.5 OBJ File: 'Enviro04.blend'
# www.blender.org
mtllib Chair_Bench.mtl
o Chair_Bench
v -0.138625 -0.006471 0.951187
v -0.138625 0.394127 0.951187
v -0.191721 -0.006471 0.951187
v -0.191721 0.394127 0.951187
v -0.138625 -0.006471 0.900563
v -0.138625 0.394127 0.900563
v -0.191721 -0.006471 0.900563
v -0.191721 0.394127 0.900563
v 0.226901 -0.006471 0.957587
v 0.226901 0.430148 0.957587
v 0.173805 -0.006471 0.957587
v 0.173805 0.430148 0.957587
v 0.226901 -0.006471 0.906964
v 0.226901 0.430148 0.906964
v 0.173805 -0.006471 0.906964
v 0.173805 0.430148 0.906964
v 0.344852 1.157840 0.929204
v 0.224036 1.157840 0.929204
v 0.344852 1.157840 -0.929204
v 0.224036 1.157840 -0.929204
v 0.344852 0.495868 0.929204
v 0.170037 0.495868 0.929204
v 0.170037 0.495868 -0.929204
v 0.344852 0.495868 -0.929204
v -0.377010 0.495868 0.929204
v -0.377010 0.495868 -0.929204
v 0.170037 0.427339 0.929204
v 0.170037 0.427339 -0.929204
v 0.344852 0.427339 -0.929204
v 0.344852 0.427339 0.929204
v -0.377010 0.427339 0.929204
v -0.377010 0.427339 -0.929204
v 0.344852 1.071158 0.929204
v 0.170037 1.071158 0.929204
v 0.170037 1.071158 -0.929204
v 0.344852 1.071158 -0.929204
v 0.170037 0.939268 0.929204
v 0.170037 0.939268 -0.929204
v 0.170037 1.046646 -0.929204
v 0.170037 1.046646 0.929204
v 0.170037 0.971327 -0.929204
v 0.170037 0.971327 0.929204
v 0.170037 0.540119 0.929204
v 0.170037 0.540119 -0.929204
v 0.170037 0.829440 0.929204
v 0.170037 0.829440 -0.929204
v 0.170037 0.646744 -0.929204
v 0.170037 0.646744 0.929204
v 0.170037 0.722062 -0.929204
v 0.170037 0.722062 0.929204
v 0.170037 0.754122 0.929204
v 0.170037 0.754122 -0.929204
v 0.170037 0.863949 0.929204
v 0.170037 0.863949 -0.929204
v 0.170037 0.615438 -0.929204
v 0.170037 0.615438 0.929204
v 0.139516 0.494230 0.929204
v 0.139516 0.494230 -0.929204
v 0.063229 0.494230 0.929204
v 0.063229 0.494230 -0.929204
v 0.036403 0.494230 0.929204
v 0.036403 0.494230 -0.929204
v -0.039884 0.494230 0.929204
v -0.039884 0.494230 -0.929204
v -0.069879 0.494230 0.929204
v -0.069879 0.494230 -0.929204
v -0.146167 0.494230 0.929204
v -0.146167 0.494230 -0.929204
v -0.176504 0.494230 0.929204
v -0.176504 0.494230 -0.929204
v -0.252792 0.494230 0.929204
v -0.252792 0.494230 -0.929204
v -0.276307 0.494230 0.929204
v -0.276307 0.494230 -0.929204
v -0.352595 0.494230 0.929204
v -0.352595 0.494230 -0.929204
v -0.138625 -0.006471 -0.855162
v -0.138625 0.394127 -0.855162
v -0.191721 -0.006471 -0.855162
v -0.191721 0.394127 -0.855162
v -0.138625 -0.006471 -0.905786
v -0.138625 0.394127 -0.905786
v -0.191721 -0.006471 -0.905786
v -0.191721 0.394127 -0.905786
v 0.226901 -0.006471 -0.848761
v 0.226901 0.430148 -0.848761
v 0.173805 -0.006471 -0.848761
v 0.173805 0.430148 -0.848761
v 0.226901 -0.006471 -0.899385
v 0.226901 0.430148 -0.899385
v 0.173805 -0.006471 -0.899385
v 0.173805 0.430148 -0.899385
vt 0.190849 0.827607
vt 0.190849 0.866815
vt 0.197227 0.866815
vt 0.197227 0.827607
vt 0.197227 0.866815
vt 0.197227 0.827607
vt 0.190849 0.866815
vt 0.190849 0.827607
vt 0.189811 0.828316
vt 0.189811 0.868221
vt 0.195364 0.868221
vt 0.195364 0.828316
vt 0.195364 0.868221
vt 0.195364 0.828316
vt 0.189811 0.868221
vt 0.189811 0.828316
vt 0.249148 0.804206
vt 0.249148 0.811414
vt 0.239101 0.811414
vt 0.234611 0.804206
vt 0.241802 0.625718
vt 0.249594 0.625718
vt 0.249594 0.811739
vt 0.241802 0.811739
vt 0.234611 0.804206
vt 0.239101 0.811414
vt 0.249148 0.811414
vt 0.249148 0.804206
vt 0.188253 0.625718
vt 0.241802 0.625718
vt 0.241802 0.811739
vt 0.188253 0.811739
vt 0.246181 0.626066
vt 0.248777 0.626066
vt 0.248777 0.628662
vt 0.246181 0.628662
vt 0.188253 0.625718
vt 0.241802 0.625718
vt 0.241802 0.811739
vt 0.188253 0.811739
vt 0.234611 0.744802
vt 0.234611 0.756368
vt 0.249148 0.756368
vt 0.249148 0.744802
vt 0.249454 0.625591
vt 0.249454 0.812171
vt 0.187716 0.812171
vt 0.187716 0.625591
vt 0.249148 0.744802
vt 0.249148 0.756368
vt 0.234611 0.756368
vt 0.234611 0.744802
vt 0.237507 0.626360
vt 0.249335 0.626360
vt 0.249335 0.811293
vt 0.237507 0.811293
vt 0.189121 0.756368
vt 0.189121 0.744802
vt 0.189121 0.744802
vt 0.189121 0.756368
vt 0.249454 0.625591
vt 0.249454 0.812171
vt 0.187716 0.812171
vt 0.187716 0.625591
vt 0.249454 0.625591
vt 0.249454 0.812171
vt 0.187716 0.812171
vt 0.187716 0.625591
vt 0.249454 0.625591
vt 0.249454 0.812171
vt 0.187716 0.812171
vt 0.187716 0.625591
vt 0.249454 0.625591
vt 0.249454 0.812171
vt 0.187716 0.812171
vt 0.187716 0.625591
vt 0.188253 0.625718
vt 0.241802 0.625718
vt 0.241802 0.811739
vt 0.188253 0.811739
vt 0.188253 0.625718
vt 0.241802 0.625718
vt 0.241802 0.811739
vt 0.188253 0.811739
vt 0.188253 0.625718
vt 0.241802 0.625718
vt 0.241802 0.811739
vt 0.188253 0.811739
vt 0.190849 0.827607
vt 0.190849 0.866815
vt 0.197227 0.866815
vt 0.197227 0.827607
vt 0.197227 0.866815
vt 0.197227 0.827607
vt 0.190849 0.866815
vt 0.190849 0.827607
vt 0.189811 0.828316
vt 0.189811 0.868221
vt 0.195364 0.868221
vt 0.195364 0.828316
vt 0.195364 0.868221
vt 0.195364 0.828316
vt 0.189811 0.868221
vt 0.189811 0.828316
vn 0.0000 0.0000 1.0000
vn -1.0000 0.0000 0.0000
vn 0.0000 0.0000 -1.0000
vn 1.0000 0.0000 0.0000
vn 0.0000 -1.0000 0.0000
vn 0.0000 1.0000 -0.0000
vn -0.8488 0.5288 -0.0000
usemtl MAT_Enviro_Props_Atlas
s 1
f 1/1/1 2/2/1 4/3/1 3/4/1
f 3/4/2 4/3/2 8/5/2 7/6/2
f 7/6/3 8/5/3 6/7/3 5/8/3
f 5/8/4 6/7/4 2/2/4 1/1/4
f 3/4/5 7/6/5 5/8/5 1/1/5
f 8/5/6 4/3/6 2/2/6 6/7/6
f 9/9/1 10/10/1 12/11/1 11/12/1
f 11/12/2 12/11/2 16/13/2 15/14/2
f 15/14/3 16/13/3 14/15/3 13/16/3
f 13/16/4 14/15/4 10/10/4 9/9/4
f 11/12/5 15/14/5 13/16/5 9/9/5
f 16/13/6 12/11/6 10/10/6 14/15/6
f 33/17/1 17/18/1 18/19/1 34/20/1
f 34/21/7 18/22/7 20/23/7 35/24/7
f 35/25/3 20/26/3 19/27/3 36/28/3
f 51/29/2 45/30/2 46/31/2 52/32/2
f 20/33/6 18/34/6 17/35/6 19/36/6
f 48/37/2 50/38/2 49/39/2 47/40/2
f 28/41/3 23/42/3 24/43/3 29/44/3
f 61/45/6 62/46/6 64/47/6 63/48/6
f 30/49/1 21/50/1 22/51/1 27/52/1
f 31/53/2 25/54/2 26/55/2 32/56/2
f 27/52/1 22/51/1 25/57/1 31/58/1
f 23/42/3 28/41/3 32/59/3 26/60/3
f 73/61/6 74/62/6 76/63/6 75/64/6
f 69/65/6 70/66/6 72/67/6 71/68/6
f 65/69/6 66/70/6 68/71/6 67/72/6
f 57/73/6 58/74/6 60/75/6 59/76/6
f 53/77/2 37/78/2 38/79/2 54/80/2
f 23/42/3 35/25/3 36/28/3 24/43/3
f 43/81/2 56/82/2 55/83/2 44/84/2
f 21/50/1 33/17/1 34/20/1 22/51/1
f 42/85/2 40/86/2 39/87/2 41/88/2
f 77/89/1 78/90/1 80/91/1 79/92/1
f 79/92/2 80/91/2 84/93/2 83/94/2
f 83/94/3 84/93/3 82/95/3 81/96/3
f 81/96/4 82/95/4 78/90/4 77/89/4
f 79/92/5 83/94/5 81/96/5 77/89/5
f 84/93/6 80/91/6 78/90/6 82/95/6
f 85/97/1 86/98/1 88/99/1 87/100/1
f 87/100/2 88/99/2 92/101/2 91/102/2
f 91/102/3 92/101/3 90/103/3 89/104/3
f 89/104/4 90/103/4 86/98/4 85/97/4
f 87/100/5 91/102/5 89/104/5 85/97/5
f 92/101/6 88/99/6 86/98/6 90/103/6
