# Blender v3.6.5 OBJ File: 'Enviro04.blend'
# www.blender.org
mtllib Flag.mtl
o Flag
v -0.000651 -0.319792 -0.000000
v 0.638934 -0.319792 -0.000000
v -0.000651 0.319792 0.000000
v 0.638934 0.319792 0.000000
v -0.000651 -0.319792 -0.000214
v 0.638934 -0.319792 -0.000214
v -0.000651 0.319792 -0.000214
v 0.638934 0.319792 -0.000214
vt 0.564718 0.756543
vt 0.681031 0.756543
vt 0.681031 0.872856
vt 0.564718 0.872856
vt 0.564718 0.756543
vt 0.564718 0.872856
vt 0.681031 0.872856
vt 0.681031 0.756543
vn 0.0000 -0.0000 1.0000
vn 0.0000 0.0000 -1.0000
usemtl MAT_Enviro_Props_Atlas
s off
f 1/1/1 2/2/1 4/3/1 3/4/1
f 5/5/2 7/6/2 8/7/2 6/8/2
