# Blender v3.6.5 OBJ File: 'Enviro04.blend'
# www.blender.org
mtllib FlagPole.mtl
o FlagPole
v 0.000000 -0.140731 -0.334939
v 0.000000 0.140731 -0.272491
v 0.236837 -0.140731 -0.236837
v 0.192680 0.140731 -0.192680
v 0.334939 -0.140731 0.000000
v 0.272491 0.140731 0.000000
v 0.236837 -0.140731 0.236837
v 0.192680 0.140731 0.192680
v 0.000000 -0.140731 0.334939
v 0.000000 0.140731 0.272491
v -0.236837 -0.140731 0.236837
v -0.192680 0.140731 0.192680
v -0.334939 -0.140731 0.000000
v -0.272491 0.140731 0.000000
v -0.236837 -0.140731 -0.236837
v -0.192680 0.140731 -0.192680
v 0.000000 -0.173295 -0.044057
v 0.000000 2.442888 -0.044057
v 0.031153 -0.173295 -0.031153
v 0.031153 2.442888 -0.031153
v 0.044057 -0.173295 0.000000
v 0.044057 2.442888 0.000000
v 0.031153 -0.173295 0.031153
v 0.031153 2.442888 0.031153
v 0.000000 -0.173295 0.044057
v 0.000000 2.442888 0.044057
v -0.031153 -0.173295 0.031153
v -0.031153 2.442888 0.031153
v -0.044057 -0.173295 0.000000
v -0.044057 2.442888 0.000000
v -0.031153 -0.173295 -0.031153
v -0.031153 2.442888 -0.031153
vt 0.316230 0.917759
vt 0.316230 0.914945
vt 0.316933 0.914945
vt 0.316933 0.917759
vt 0.317637 0.914945
vt 0.317637 0.917759
vt 0.318341 0.914945
vt 0.318341 0.917759
vt 0.319045 0.914945
vt 0.319045 0.917759
vt 0.319748 0.914945
vt 0.319748 0.917759
vt 0.320452 0.914945
vt 0.320452 0.917759
vt 0.333069 0.979201
vt 0.334033 0.978801
vt 0.334998 0.979201
vt 0.335397 0.980165
vt 0.334998 0.981130
vt 0.334033 0.981529
vt 0.333069 0.981130
vt 0.332669 0.980165
vt 0.321156 0.914945
vt 0.321156 0.917759
vt 0.321859 0.914945
vt 0.321859 0.917759
vt 0.309592 0.993783
vt 0.308347 0.994299
vt 0.307831 0.995545
vt 0.308347 0.996791
vt 0.309592 0.997307
vt 0.310838 0.996791
vt 0.311354 0.995545
vt 0.310838 0.994299
vt 0.591671 0.385887
vt 0.591671 0.409614
vt 0.585739 0.409614
vt 0.585739 0.385887
vt 0.579808 0.409614
vt 0.579808 0.385887
vt 0.573876 0.409614
vt 0.573876 0.385887
vt 0.567944 0.409614
vt 0.567944 0.385887
vt 0.562012 0.409614
vt 0.562012 0.385887
vt 0.556081 0.409614
vt 0.556081 0.385887
vt 0.564134 0.382077
vt 0.556081 0.385413
vt 0.548028 0.382077
vt 0.544692 0.374024
vt 0.548028 0.365971
vt 0.556081 0.362635
vt 0.564134 0.365971
vt 0.567470 0.374024
vt 0.550149 0.409614
vt 0.550149 0.385887
vt 0.544217 0.409614
vt 0.544217 0.385887
vt 0.579808 0.385413
vt 0.587861 0.382077
vt 0.591196 0.374024
vt 0.587861 0.365971
vt 0.579808 0.362635
vt 0.571754 0.365971
vt 0.568419 0.374024
vt 0.571754 0.382077
vn 0.3749 0.2008 -0.9051
vn 0.9051 0.2008 -0.3749
vn 0.9051 0.2008 0.3749
vn 0.3749 0.2008 0.9051
vn -0.3749 0.2008 0.9051
vn -0.9051 0.2008 0.3749
vn 0.0000 1.0000 -0.0000
vn -0.9051 0.2008 -0.3749
vn -0.3749 0.2008 -0.9051
vn 0.0000 -1.0000 0.0000
vn 0.3827 0.0000 -0.9239
vn 0.9239 0.0000 -0.3827
vn 0.9239 0.0000 0.3827
vn 0.3827 0.0000 0.9239
vn -0.3827 0.0000 0.9239
vn -0.9239 0.0000 0.3827
vn -0.9239 0.0000 -0.3827
vn -0.3827 0.0000 -0.9239
usemtl MAT_Enviro_Props_Atlas
s off
f 1/1/1 2/2/1 4/3/1 3/4/1
f 3/4/2 4/3/2 6/5/2 5/6/2
f 5/6/3 6/5/3 8/7/3 7/8/3
f 7/8/4 8/7/4 10/9/4 9/10/4
f 9/10/5 10/9/5 12/11/5 11/12/5
f 11/12/6 12/11/6 14/13/6 13/14/6
f 4/15/7 2/16/7 16/17/7 14/18/7 12/19/7 10/20/7 8/21/7 6/22/7
f 13/14/8 14/13/8 16/23/8 15/24/8
f 15/24/9 16/23/9 2/25/9 1/26/9
f 1/27/10 3/28/10 5/29/10 7/30/10 9/31/10 11/32/10 13/33/10 15/34/10
f 17/35/11 18/36/11 20/37/11 19/38/11
f 19/38/12 20/37/12 22/39/12 21/40/12
f 21/40/13 22/39/13 24/41/13 23/42/13
f 23/42/14 24/41/14 26/43/14 25/44/14
f 25/44/15 26/43/15 28/45/15 27/46/15
f 27/46/16 28/45/16 30/47/16 29/48/16
f 20/49/7 18/50/7 32/51/7 30/52/7 28/53/7 26/54/7 24/55/7 22/56/7
f 29/48/17 30/47/17 32/57/17 31/58/17
f 31/58/18 32/57/18 18/59/18 17/60/18
f 17/61/10 19/62/10 21/63/10 23/64/10 25/65/10 27/66/10 29/67/10 31/68/10
