# Blender v3.6.5 OBJ File: 'Enviro04.blend'
# www.blender.org
mtllib Garbage_Can.mtl
o Garbage_Can.001
v 0.000000 -0.005528 -0.340127
v 0.000000 0.730811 -0.397103
v 0.240506 -0.005528 -0.240506
v 0.280794 0.730811 -0.280794
v 0.340127 -0.005528 0.000000
v 0.397103 0.730811 0.000000
v 0.240506 -0.005528 0.240506
v 0.280794 0.730811 0.280794
v 0.000000 -0.005528 0.340127
v 0.000000 0.730811 0.397103
v -0.240506 -0.005528 0.240506
v -0.280794 0.730811 0.280794
v -0.340127 -0.005528 0.000000
v -0.397103 0.730811 0.000000
v -0.240506 -0.005528 -0.240506
v -0.280794 0.730811 -0.280794
v 0.261062 0.809776 -0.261062
v 0.000000 0.809776 -0.369197
v 0.369197 0.809776 -0.000000
v 0.261062 0.809776 0.261062
v 0.000000 0.809776 0.369197
v -0.261062 0.809776 0.261062
v -0.369197 0.809776 -0.000000
v -0.261062 0.809776 -0.261062
v 0.194587 0.111578 -0.194587
v 0.000000 0.111578 -0.275188
v 0.275188 0.111578 -0.000000
v 0.194587 0.111578 0.194587
v 0.000000 0.111578 0.275188
v -0.194587 0.111578 0.194587
v -0.275188 0.111578 -0.000000
v -0.194587 0.111578 -0.194587
vt 0.489631 0.629240
vt 0.489631 0.735462
vt 0.476204 0.735462
vt 0.476204 0.629240
vt 0.462777 0.735462
vt 0.462777 0.629240
vt 0.449350 0.735462
vt 0.449350 0.629240
vt 0.435923 0.735462
vt 0.435923 0.629240
vt 0.422496 0.735462
vt 0.422496 0.629240
vt 0.409069 0.735462
vt 0.409069 0.629240
vt 0.338234 0.974968
vt 0.348043 0.974968
vt 0.348043 0.974968
vt 0.338234 0.974968
vt 0.395642 0.735462
vt 0.395642 0.629240
vt 0.382215 0.735462
vt 0.382215 0.629240
vt 0.750000 0.490000
vt 0.919706 0.419706
vt 0.990000 0.250000
vt 0.919706 0.080294
vt 0.750000 0.010000
vt 0.580294 0.080294
vt 0.510000 0.250000
vt 0.580294 0.419706
vt 0.357853 0.880241
vt 0.367663 0.880241
vt 0.367663 0.880241
vt 0.357853 0.880241
vt 0.308805 0.974968
vt 0.318614 0.974968
vt 0.318614 0.974968
vt 0.308805 0.974968
vt 0.328424 0.974968
vt 0.328424 0.974968
vt 0.298995 0.974968
vt 0.298995 0.974968
vt 0.357853 0.974968
vt 0.357853 0.974968
vt 0.289185 0.974968
vt 0.289185 0.974968
vt 0.367663 0.974968
vt 0.367663 0.974968
vt 0.330603 0.996502
vt 0.329312 0.997037
vt 0.328022 0.996502
vt 0.327487 0.995211
vt 0.328022 0.993921
vt 0.329312 0.993386
vt 0.330603 0.993921
vt 0.331138 0.995211
vt 0.289185 0.880241
vt 0.298995 0.880241
vt 0.298995 0.880241
vt 0.289185 0.880241
vt 0.308805 0.880241
vt 0.318614 0.880241
vt 0.318614 0.880241
vt 0.308805 0.880241
vt 0.328424 0.880241
vt 0.338234 0.880241
vt 0.338234 0.880241
vt 0.328424 0.880241
vt 0.348043 0.880241
vt 0.348043 0.880241
vn 0.3817 -0.0713 -0.9215
vn 0.9215 -0.0713 -0.3817
vn 0.9215 -0.0713 0.3817
vn 0.3817 -0.0713 0.9215
vn -0.3817 -0.0713 0.9215
vn -0.9215 -0.0713 0.3817
vn 0.8783 0.3104 0.3638
vn -0.9215 -0.0713 -0.3817
vn -0.3817 -0.0713 -0.9215
vn 0.0000 -1.0000 0.0000
vn -0.3798 0.1234 0.9168
vn -0.8783 0.3104 0.3638
vn 0.3638 0.3104 0.8783
vn -0.8783 0.3104 -0.3638
vn 0.8783 0.3104 -0.3638
vn -0.3638 0.3104 0.8783
vn -0.3638 0.3104 -0.8783
vn 0.3638 0.3104 -0.8783
vn 0.0000 1.0000 0.0000
vn 0.3798 0.1234 0.9168
vn 0.9168 0.1234 -0.3798
vn -0.3798 0.1234 -0.9168
vn -0.9168 0.1234 0.3798
vn 0.9168 0.1234 0.3798
vn 0.3798 0.1234 -0.9168
vn -0.9168 0.1234 -0.3798
usemtl MAT_Enviro_Props_Atlas
s off
f 1/1/1 2/2/1 4/3/1 3/4/1
f 3/4/2 4/3/2 6/5/2 5/6/2
f 5/6/3 6/5/3 8/7/3 7/8/3
f 7/8/4 8/7/4 10/9/4 9/10/4
f 9/10/5 10/9/5 12/11/5 11/12/5
f 11/12/6 12/11/6 14/13/6 13/14/6
f 8/15/7 6/16/7 19/17/7 20/18/7
f 13/14/8 14/13/8 16/19/8 15/20/8
f 15/20/9 16/19/9 2/21/9 1/22/9
f 1/23/10 3/24/10 5/25/10 7/26/10 9/27/10 11/28/10 13/29/10 15/30/10
f 17/31/11 18/32/11 26/33/11 25/34/11
f 14/35/12 12/36/12 22/37/12 23/38/12
f 10/39/13 8/15/13 20/18/13 21/40/13
f 16/41/14 14/35/14 23/38/14 24/42/14
f 6/16/15 4/43/15 17/44/15 19/17/15
f 12/36/16 10/39/16 21/40/16 22/37/16
f 2/45/17 16/41/17 24/42/17 18/46/17
f 4/43/18 2/47/18 18/48/18 17/44/18
f 25/49/19 26/50/19 32/51/19 31/52/19 30/53/19 29/54/19 28/55/19 27/56/19
f 18/57/20 24/58/20 32/59/20 26/60/20
f 23/61/21 22/62/21 30/63/21 31/64/21
f 21/65/22 20/66/22 28/67/22 29/68/22
f 19/69/23 17/31/23 25/34/23 27/70/23
f 24/58/24 23/61/24 31/64/24 32/59/24
f 22/62/25 21/65/25 29/68/25 30/63/25
f 20/66/26 19/69/26 27/70/26 28/67/26
