# Blender v3.6.5 OBJ File: 'Enviro04.blend'
# www.blender.org
mtllib GatchaPon.mtl
o GatchaPon
v -0.327489 0.001945 0.362062
v -0.327489 1.939612 0.362062
v -0.324612 0.001945 -0.364644
v -0.324612 1.939612 -0.364644
v 0.324612 0.001945 0.364644
v 0.324612 1.939612 0.364644
v 0.327489 0.001945 -0.362062
v 0.327489 1.939612 -0.362063
v -0.324612 1.085585 -0.364644
v -0.327489 1.085585 0.362062
v -0.421907 1.775110 0.362062
v -0.421907 1.163205 0.362062
v -0.419030 1.163205 -0.364644
v -0.419030 1.775110 -0.364644
v 0.327489 1.163205 -0.362063
v 0.327489 1.775110 -0.362063
v 0.324612 1.163205 0.364644
v 0.324612 1.775110 0.364644
v -0.327489 1.819173 0.362062
v -0.324612 1.819173 -0.364644
vt 0.599534 0.440132
vt 0.522579 0.440132
vt 0.532312 0.432130
vt 0.532608 0.320423
vt 0.532608 0.432130
vt 0.599830 0.440132
vt 0.599830 0.320423
vt 0.517227 0.431704
vt 0.517227 0.439695
vt 0.442417 0.439695
vt 0.442417 0.431704
vt 0.588421 0.317886
vt 0.588087 0.325240
vt 0.580733 0.324906
vt 0.581067 0.317552
vt 0.591258 0.522535
vt 0.590924 0.529889
vt 0.583570 0.529555
vt 0.583905 0.522201
vt 0.522875 0.440132
vt 0.581666 0.317428
vt 0.580022 0.317353
vt 0.579692 0.324616
vt 0.581336 0.324691
vt 0.532608 0.507752
vt 0.532608 0.520168
vt 0.599830 0.520168
vt 0.599830 0.503210
vt 0.517227 0.507223
vt 0.517227 0.519621
vt 0.442417 0.519621
vt 0.442417 0.507223
vt 0.599534 0.503210
vt 0.522579 0.503210
vt 0.587451 0.324968
vt 0.587781 0.317706
vt 0.522875 0.503210
vt 0.517227 0.502687
vt 0.442417 0.502687
vt 0.599534 0.520168
vt 0.532312 0.520168
vt 0.532312 0.507752
vt 0.517227 0.320150
vt 0.442417 0.320150
vt 0.599386 0.318234
vt 0.599056 0.325496
vt 0.599534 0.320423
vt 0.532312 0.320423
vn -0.0036 -0.0025 1.0000
vn -0.0035 -0.0035 1.0000
vn -0.0039 -0.0003 1.0000
vn 0.0040 -0.0000 -1.0000
vn 0.0039 0.0003 -1.0000
vn 0.0036 0.0025 -1.0000
vn -0.6350 -0.7725 -0.0025
vn -0.0000 -1.0000 0.0000
vn 0.0000 1.0000 0.0000
vn 0.0035 0.0035 -1.0000
vn 1.0000 0.0000 0.0040
vn 0.0039 -0.0008 -1.0000
vn 0.0036 -0.0043 -1.0000
vn -1.0000 -0.0000 -0.0040
vn -0.0036 0.0044 1.0000
vn -0.0035 0.0058 1.0000
vn 0.0035 -0.0059 -1.0000
vn -0.0040 0.0000 1.0000
vn -0.0039 0.0008 1.0000
vn -0.4229 0.9062 -0.0017
usemtl MAT_Enviro_Props_Atlas
s 1
f 17/1/1 12/2/2 10/3/3
f 3/4/4 9/5/5 15/6/6 7/7/4
f 10/8/7 12/9/7 13/10/7 9/11/7
f 3/12/8 7/13/8 5/14/8 1/15/8
f 8/16/9 4/17/9 2/18/9 6/19/9
f 9/5/5 13/20/10 15/6/6
f 16/21/11 8/22/11 6/23/11 18/24/11
f 20/25/12 4/26/4 8/27/4 16/28/13
f 19/29/14 2/30/14 4/31/14 20/32/14
f 18/33/15 11/34/16 12/2/2 17/1/1
f 16/21/11 18/24/11 17/35/11 15/36/11
f 14/37/17 16/28/13 15/6/6 13/20/10
f 11/38/14 14/39/14 13/10/14 12/9/14
f 18/33/15 6/40/18 2/41/18 19/42/19
f 1/43/14 10/8/14 9/11/14 3/44/14
f 7/45/11 15/36/11 17/35/11 5/46/11
f 5/47/18 17/1/1 10/3/3 1/48/18
f 18/33/15 19/42/19 11/34/16
f 11/38/20 19/29/20 20/32/20 14/39/20
f 14/37/17 20/25/12 16/28/13
