# Blender v3.6.5 OBJ File: 'Enviro05.blend'
# www.blender.org
mtllib RopeFence6.mtl
o RopeFence6
v -3.006175 -0.005288 0.071773
v -3.006175 0.834703 0.071773
v -3.076675 -0.005288 0.001273
v -3.076675 0.834703 0.001273
v -2.935675 -0.005288 0.001273
v -2.935675 0.834703 0.001273
v -3.006175 -0.005288 -0.069226
v -3.006175 0.834703 -0.069226
v -4.502846 0.785777 0.051124
v -2.994928 0.785777 0.051124
v -4.502846 0.686076 0.051124
v -2.994928 0.686076 0.051124
v -4.255802 0.732442 0.051124
v -3.273562 0.732442 0.051124
v -3.778513 0.692406 0.051124
v -3.273561 0.632741 0.051124
v -4.255802 0.632741 0.051124
v -3.778513 0.592704 0.051124
v -4.502846 0.785777 -0.052907
v -2.994928 0.785777 -0.052907
v -4.502846 0.686076 -0.052907
v -2.994928 0.686076 -0.052907
v -4.255802 0.732442 -0.052907
v -3.273562 0.732442 -0.052907
v -3.778513 0.692406 -0.052907
v -3.273561 0.632741 -0.052907
v -4.255802 0.632741 -0.052907
v -3.778513 0.592704 -0.052907
v -2.935675 0.638342 0.001273
v -3.006175 0.638342 -0.069226
v -3.076675 0.638342 0.001273
v -3.006175 0.638342 0.071773
v -4.510100 -0.005288 0.071773
v -4.510100 0.834703 0.071773
v -4.580600 -0.005288 0.001273
v -4.580600 0.834703 0.001273
v -4.439600 -0.005288 0.001273
v -4.439600 0.834703 0.001273
v -4.510100 -0.005288 -0.069226
v -4.510100 0.834703 -0.069226
v -4.439600 0.638342 0.001273
v -4.510100 0.638342 -0.069226
v -4.580600 0.638342 0.001273
v -4.510100 0.638342 0.071773
v -1.502216 -0.005288 0.071773
v -1.502216 0.834703 0.071773
v -1.572716 -0.005288 0.001273
v -1.572716 0.834703 0.001273
v -1.431716 -0.005288 0.001273
v -1.431716 0.834703 0.001273
v -1.502216 -0.005288 -0.069226
v -1.502216 0.834703 -0.069226
v -2.998887 0.785777 0.051124
v -1.490969 0.785777 0.051124
v -2.998887 0.686076 0.051124
v -1.490969 0.686076 0.051124
v -2.751843 0.732442 0.051124
v -1.769603 0.732442 0.051124
v -2.274554 0.692406 0.051124
v -1.769603 0.632741 0.051124
v -2.751843 0.632741 0.051124
v -2.274554 0.592704 0.051124
v -2.998887 0.785777 -0.052907
v -1.490969 0.785777 -0.052907
v -2.998887 0.686076 -0.052907
v -1.490969 0.686076 -0.052907
v -2.751843 0.732442 -0.052907
v -1.769603 0.732442 -0.052907
v -2.274554 0.692406 -0.052907
v -1.769603 0.632741 -0.052907
v -2.751843 0.632741 -0.052907
v -2.274554 0.592704 -0.052907
v -1.431716 0.638342 0.001273
v -1.502216 0.638342 -0.069226
v -1.572716 0.638342 0.001273
v -1.502216 0.638342 0.071773
v 0.001715 -0.005288 0.071773
v 0.001715 0.834703 0.071773
v -0.068784 -0.005288 0.001273
v -0.068784 0.834703 0.001273
v 0.072215 -0.005288 0.001273
v 0.072215 0.834703 0.001273
v 0.001715 -0.005288 -0.069226
v 0.001715 0.834703 -0.069226
v -1.494956 0.785777 0.051124
v 0.012962 0.785777 0.051124
v -1.494956 0.686076 0.051124
v 0.012962 0.686076 0.051124
v -1.247912 0.732442 0.051124
v -0.265671 0.732442 0.051124
v -0.770623 0.692406 0.051124
v -0.265671 0.632741 0.051124
v -1.247912 0.632741 0.051124
v -0.770623 0.592704 0.051124
v -1.494956 0.785777 -0.052907
v 0.012962 0.785777 -0.052907
v -1.494956 0.686076 -0.052907
v 0.012962 0.686076 -0.052907
v -1.247912 0.732442 -0.052907
v -0.265671 0.732442 -0.052907
v -0.770623 0.692406 -0.052907
v -0.265671 0.632741 -0.052907
v -1.247912 0.632741 -0.052907
v -0.770623 0.592704 -0.052907
v 0.072215 0.638342 0.001273
v 0.001715 0.638342 -0.069226
v -0.068784 0.638342 0.001273
v 0.001715 0.638342 0.071773
v 1.505734 -0.005288 0.071773
v 1.505734 0.834703 0.071773
v 1.435234 -0.005288 0.001273
v 1.435234 0.834703 0.001273
v 1.576234 -0.005288 0.001273
v 1.576234 0.834703 0.001273
v 1.505734 -0.005288 -0.069226
v 1.505734 0.834703 -0.069226
v 0.009063 0.785777 0.051124
v 1.516981 0.785777 0.051124
v 0.009063 0.686076 0.051124
v 1.516981 0.686076 0.051124
v 0.256107 0.732442 0.051124
v 1.238347 0.732442 0.051124
v 0.733396 0.692406 0.051124
v 1.238348 0.632741 0.051124
v 0.256107 0.632741 0.051124
v 0.733396 0.592704 0.051124
v 0.009063 0.785777 -0.052907
v 1.516981 0.785777 -0.052907
v 0.009063 0.686076 -0.052907
v 1.516981 0.686076 -0.052907
v 0.256107 0.732442 -0.052907
v 1.238347 0.732442 -0.052907
v 0.733396 0.692406 -0.052907
v 1.238348 0.632741 -0.052907
v 0.256107 0.632741 -0.052907
v 0.733396 0.592704 -0.052907
v 1.576234 0.638342 0.001273
v 1.505734 0.638342 -0.069226
v 1.435234 0.638342 0.001273
v 1.505734 0.638342 0.071773
v 3.009693 -0.005288 0.071773
v 3.009693 0.834703 0.071773
v 2.939193 -0.005288 0.001273
v 2.939193 0.834703 0.001273
v 3.080193 -0.005288 0.001273
v 3.080193 0.834703 0.001273
v 3.009693 -0.005288 -0.069226
v 3.009693 0.834703 -0.069226
v 1.513022 0.785777 0.051124
v 3.020939 0.785777 0.051124
v 1.513022 0.686076 0.051124
v 3.020939 0.686076 0.051124
v 1.760066 0.732442 0.051124
v 2.742306 0.732442 0.051124
v 2.237355 0.692406 0.051124
v 2.742306 0.632741 0.051124
v 1.760066 0.632741 0.051124
v 2.237355 0.592704 0.051124
v 1.513022 0.785777 -0.052907
v 3.020939 0.785777 -0.052907
v 1.513022 0.686076 -0.052907
v 3.020939 0.686076 -0.052907
v 1.760066 0.732442 -0.052907
v 2.742306 0.732442 -0.052907
v 2.237355 0.692406 -0.052907
v 2.742306 0.632741 -0.052907
v 1.760066 0.632741 -0.052907
v 2.237355 0.592704 -0.052907
v 3.080193 0.638342 0.001273
v 3.009693 0.638342 -0.069226
v 2.939193 0.638342 0.001273
v 3.009693 0.638342 0.071773
v 4.513624 -0.005288 0.071773
v 4.513624 0.834703 0.071773
v 4.443124 -0.005288 0.001273
v 4.443124 0.834703 0.001273
v 4.584124 -0.005288 0.001273
v 4.584124 0.834703 0.001273
v 4.513624 -0.005288 -0.069226
v 4.513624 0.834703 -0.069226
v 3.016953 0.785777 0.051124
v 4.524871 0.785777 0.051124
v 3.016953 0.686076 0.051124
v 4.524871 0.686076 0.051124
v 3.263997 0.732442 0.051124
v 4.246237 0.732442 0.051124
v 3.741286 0.692406 0.051124
v 4.246237 0.632741 0.051124
v 3.263997 0.632741 0.051124
v 3.741286 0.592704 0.051124
v 3.016953 0.785777 -0.052907
v 4.524871 0.785777 -0.052907
v 3.016953 0.686076 -0.052907
v 4.524871 0.686076 -0.052907
v 3.263997 0.732442 -0.052907
v 4.246237 0.732442 -0.052907
v 3.741286 0.692406 -0.052907
v 4.246237 0.632741 -0.052907
v 3.263997 0.632741 -0.052907
v 3.741286 0.592704 -0.052907
v 4.584124 0.638342 0.001273
v 4.513624 0.638342 -0.069226
v 4.443124 0.638342 0.001273
v 4.513624 0.638342 0.071773
vt 0.029051 0.036610
vt 0.029051 0.057346
vt 0.014355 0.057346
vt 0.014355 0.036610
vt 0.029051 0.057345
vt 0.029051 0.036610
vt 0.043748 0.057346
vt 0.043747 0.036610
vt 0.643118 0.189917
vt 0.647192 0.189917
vt 0.651266 0.189917
vt 0.647192 0.189917
vt 0.647192 0.246204
vt 0.643118 0.246204
vt 0.647192 0.246204
vt 0.651266 0.246204
vt 0.000530 0.035800
vt 0.033642 0.035800
vt 0.033642 0.046709
vt 0.000530 0.046709
vt 0.153657 0.035800
vt 0.153657 0.046709
vt 0.093649 0.046709
vt 0.093649 0.035843
vt 0.186769 0.035800
vt 0.186769 0.046709
vt 0.000530 0.035800
vt 0.000530 0.046709
vt 0.033642 0.046709
vt 0.033642 0.035800
vt 0.153657 0.035800
vt 0.093649 0.035843
vt 0.093649 0.046709
vt 0.153657 0.046709
vt 0.186769 0.046709
vt 0.186769 0.035800
vt 0.647192 0.197709
vt 0.643118 0.197709
vt 0.647192 0.197709
vt 0.651266 0.197709
vt 0.029051 0.036610
vt 0.029051 0.057346
vt 0.014355 0.057346
vt 0.014355 0.036610
vt 0.029051 0.057345
vt 0.029051 0.036610
vt 0.043748 0.057346
vt 0.043747 0.036610
vt 0.643118 0.189917
vt 0.647192 0.189917
vt 0.651266 0.189917
vt 0.647192 0.189917
vt 0.647192 0.246204
vt 0.643118 0.246204
vt 0.647192 0.246204
vt 0.651266 0.246204
vt 0.647192 0.197709
vt 0.643118 0.197709
vt 0.647192 0.197709
vt 0.651266 0.197709
vt 0.029051 0.036610
vt 0.029051 0.057346
vt 0.014355 0.057346
vt 0.014355 0.036610
vt 0.029051 0.057345
vt 0.029051 0.036610
vt 0.043748 0.057346
vt 0.043747 0.036610
vt 0.643118 0.189917
vt 0.647192 0.189917
vt 0.651266 0.189917
vt 0.647192 0.189917
vt 0.647192 0.246204
vt 0.643118 0.246204
vt 0.647192 0.246204
vt 0.651266 0.246204
vt 0.000530 0.035800
vt 0.033642 0.035800
vt 0.033642 0.046709
vt 0.000530 0.046709
vt 0.153657 0.035800
vt 0.153657 0.046709
vt 0.093649 0.046709
vt 0.093649 0.035843
vt 0.186769 0.035800
vt 0.186769 0.046709
vt 0.000530 0.035800
vt 0.000530 0.046709
vt 0.033642 0.046709
vt 0.033642 0.035800
vt 0.153657 0.035800
vt 0.093649 0.035843
vt 0.093649 0.046709
vt 0.153657 0.046709
vt 0.186769 0.046709
vt 0.186769 0.035800
vt 0.647192 0.197709
vt 0.643118 0.197709
vt 0.647192 0.197709
vt 0.651266 0.197709
vt 0.029051 0.036610
vt 0.029051 0.057346
vt 0.014355 0.057346
vt 0.014355 0.036610
vt 0.029051 0.057345
vt 0.029051 0.036610
vt 0.043748 0.057346
vt 0.043747 0.036610
vt 0.643118 0.189917
vt 0.647192 0.189917
vt 0.651266 0.189917
vt 0.647192 0.189917
vt 0.647192 0.246204
vt 0.643118 0.246204
vt 0.647192 0.246204
vt 0.651266 0.246204
vt 0.000530 0.035800
vt 0.033642 0.035800
vt 0.033642 0.046709
vt 0.000530 0.046709
vt 0.153657 0.035800
vt 0.153657 0.046709
vt 0.093649 0.046709
vt 0.093649 0.035843
vt 0.186769 0.035800
vt 0.186769 0.046709
vt 0.000530 0.035800
vt 0.000530 0.046709
vt 0.033642 0.046709
vt 0.033642 0.035800
vt 0.153657 0.035800
vt 0.093649 0.035843
vt 0.093649 0.046709
vt 0.153657 0.046709
vt 0.186769 0.046709
vt 0.186769 0.035800
vt 0.647192 0.197709
vt 0.643118 0.197709
vt 0.647192 0.197709
vt 0.651266 0.197709
vt 0.029051 0.036610
vt 0.029051 0.057346
vt 0.014355 0.057346
vt 0.014355 0.036610
vt 0.029051 0.057345
vt 0.029051 0.036610
vt 0.043748 0.057346
vt 0.043747 0.036610
vt 0.643118 0.189917
vt 0.647192 0.189917
vt 0.651266 0.189917
vt 0.647192 0.189917
vt 0.647192 0.246204
vt 0.643118 0.246204
vt 0.647192 0.246204
vt 0.651266 0.246204
vt 0.000530 0.035800
vt 0.033642 0.035800
vt 0.033642 0.046709
vt 0.000530 0.046709
vt 0.153657 0.035800
vt 0.153657 0.046709
vt 0.093649 0.046709
vt 0.093649 0.035843
vt 0.186769 0.035800
vt 0.186769 0.046709
vt 0.000530 0.035800
vt 0.000530 0.046709
vt 0.033642 0.046709
vt 0.033642 0.035800
vt 0.153657 0.035800
vt 0.093649 0.035843
vt 0.093649 0.046709
vt 0.153657 0.046709
vt 0.186769 0.046709
vt 0.186769 0.035800
vt 0.647192 0.197709
vt 0.643118 0.197709
vt 0.647192 0.197709
vt 0.651266 0.197709
vt 0.029051 0.036610
vt 0.029051 0.057346
vt 0.014355 0.057346
vt 0.014355 0.036610
vt 0.029051 0.057345
vt 0.029051 0.036610
vt 0.043748 0.057346
vt 0.043747 0.036610
vt 0.643118 0.189917
vt 0.647192 0.189917
vt 0.651266 0.189917
vt 0.647192 0.189917
vt 0.647192 0.246204
vt 0.643118 0.246204
vt 0.647192 0.246204
vt 0.651266 0.246204
vt 0.000530 0.035800
vt 0.033642 0.035800
vt 0.033642 0.046709
vt 0.000530 0.046709
vt 0.153657 0.035800
vt 0.153657 0.046709
vt 0.093649 0.046709
vt 0.093649 0.035843
vt 0.186769 0.035800
vt 0.186769 0.046709
vt 0.000530 0.035800
vt 0.000530 0.046709
vt 0.033642 0.046709
vt 0.033642 0.035800
vt 0.153657 0.035800
vt 0.093649 0.035843
vt 0.093649 0.046709
vt 0.153657 0.046709
vt 0.186769 0.046709
vt 0.186769 0.035800
vt 0.647192 0.197709
vt 0.643118 0.197709
vt 0.647192 0.197709
vt 0.651266 0.197709
vt 0.029051 0.036610
vt 0.029051 0.057346
vt 0.014355 0.057346
vt 0.014355 0.036610
vt 0.029051 0.057345
vt 0.029051 0.036610
vt 0.043748 0.057346
vt 0.043747 0.036610
vt 0.643118 0.189917
vt 0.647192 0.189917
vt 0.651266 0.189917
vt 0.647192 0.189917
vt 0.647192 0.246204
vt 0.643118 0.246204
vt 0.647192 0.246204
vt 0.651266 0.246204
vt 0.000530 0.035800
vt 0.033642 0.035800
vt 0.033642 0.046709
vt 0.000530 0.046709
vt 0.153657 0.035800
vt 0.153657 0.046709
vt 0.093649 0.046709
vt 0.093649 0.035843
vt 0.186769 0.035800
vt 0.186769 0.046709
vt 0.000530 0.035800
vt 0.000530 0.046709
vt 0.033642 0.046709
vt 0.033642 0.035800
vt 0.153657 0.035800
vt 0.093649 0.035843
vt 0.093649 0.046709
vt 0.153657 0.046709
vt 0.186769 0.046709
vt 0.186769 0.035800
vt 0.647192 0.197709
vt 0.643118 0.197709
vt 0.647192 0.197709
vt 0.651266 0.197709
vn -0.7071 0.0000 0.7071
vn -0.7071 0.0000 -0.7071
vn 0.7071 0.0000 -0.7071
vn 0.7071 0.0000 0.7071
vn 0.0000 -1.0000 0.0000
vn 0.0000 1.0000 0.0000
vn 0.0000 -0.0000 1.0000
vn -0.0000 0.0000 -1.0000
usemtl Mat_Enviro_Atlas
s off
f 32/1/1 2/2/1 4/3/1 31/4/1
f 31/4/2 4/3/2 8/5/2 30/6/2
f 30/6/3 8/5/3 6/7/3 29/8/3
f 29/8/4 6/7/4 2/2/4 32/1/4
f 3/9/5 7/10/5 5/11/5 1/12/5
f 8/13/6 4/14/6 2/15/6 6/16/6
f 11/17/7 17/18/7 13/19/7 9/20/7
f 16/21/7 14/22/7 15/23/7 18/24/7
f 18/24/7 15/23/7 13/19/7 17/18/7
f 16/21/7 12/25/7 10/26/7 14/22/7
f 21/27/8 19/28/8 23/29/8 27/30/8
f 26/31/8 28/32/8 25/33/8 24/34/8
f 28/32/8 27/30/8 23/29/8 25/33/8
f 26/31/8 24/34/8 20/35/8 22/36/8
f 1/12/1 32/37/1 31/38/1 3/9/1
f 3/9/2 31/38/2 30/39/2 7/10/2
f 7/10/3 30/39/3 29/40/3 5/11/3
f 5/11/4 29/40/4 32/37/4 1/12/4
f 44/41/1 34/42/1 36/43/1 43/44/1
f 43/44/2 36/43/2 40/45/2 42/46/2
f 42/46/3 40/45/3 38/47/3 41/48/3
f 41/48/4 38/47/4 34/42/4 44/41/4
f 35/49/5 39/50/5 37/51/5 33/52/5
f 40/53/6 36/54/6 34/55/6 38/56/6
f 33/52/1 44/57/1 43/58/1 35/49/1
f 35/49/2 43/58/2 42/59/2 39/50/2
f 39/50/3 42/59/3 41/60/3 37/51/3
f 37/51/4 41/60/4 44/57/4 33/52/4
f 76/61/1 46/62/1 48/63/1 75/64/1
f 75/64/2 48/63/2 52/65/2 74/66/2
f 74/66/3 52/65/3 50/67/3 73/68/3
f 73/68/4 50/67/4 46/62/4 76/61/4
f 47/69/5 51/70/5 49/71/5 45/72/5
f 52/73/6 48/74/6 46/75/6 50/76/6
f 55/77/7 61/78/7 57/79/7 53/80/7
f 60/81/7 58/82/7 59/83/7 62/84/7
f 62/84/7 59/83/7 57/79/7 61/78/7
f 60/81/7 56/85/7 54/86/7 58/82/7
f 65/87/8 63/88/8 67/89/8 71/90/8
f 70/91/8 72/92/8 69/93/8 68/94/8
f 72/92/8 71/90/8 67/89/8 69/93/8
f 70/91/8 68/94/8 64/95/8 66/96/8
f 45/72/1 76/97/1 75/98/1 47/69/1
f 47/69/2 75/98/2 74/99/2 51/70/2
f 51/70/3 74/99/3 73/100/3 49/71/3
f 49/71/4 73/100/4 76/97/4 45/72/4
f 108/101/1 78/102/1 80/103/1 107/104/1
f 107/104/2 80/103/2 84/105/2 106/106/2
f 106/106/3 84/105/3 82/107/3 105/108/3
f 105/108/4 82/107/4 78/102/4 108/101/4
f 79/109/5 83/110/5 81/111/5 77/112/5
f 84/113/6 80/114/6 78/115/6 82/116/6
f 87/117/7 93/118/7 89/119/7 85/120/7
f 92/121/7 90/122/7 91/123/7 94/124/7
f 94/124/7 91/123/7 89/119/7 93/118/7
f 92/121/7 88/125/7 86/126/7 90/122/7
f 97/127/8 95/128/8 99/129/8 103/130/8
f 102/131/8 104/132/8 101/133/8 100/134/8
f 104/132/8 103/130/8 99/129/8 101/133/8
f 102/131/8 100/134/8 96/135/8 98/136/8
f 77/112/1 108/137/1 107/138/1 79/109/1
f 79/109/2 107/138/2 106/139/2 83/110/2
f 83/110/3 106/139/3 105/140/3 81/111/3
f 81/111/4 105/140/4 108/137/4 77/112/4
f 140/141/1 110/142/1 112/143/1 139/144/1
f 139/144/2 112/143/2 116/145/2 138/146/2
f 138/146/3 116/145/3 114/147/3 137/148/3
f 137/148/4 114/147/4 110/142/4 140/141/4
f 111/149/5 115/150/5 113/151/5 109/152/5
f 116/153/6 112/154/6 110/155/6 114/156/6
f 119/157/7 125/158/7 121/159/7 117/160/7
f 124/161/7 122/162/7 123/163/7 126/164/7
f 126/164/7 123/163/7 121/159/7 125/158/7
f 124/161/7 120/165/7 118/166/7 122/162/7
f 129/167/8 127/168/8 131/169/8 135/170/8
f 134/171/8 136/172/8 133/173/8 132/174/8
f 136/172/8 135/170/8 131/169/8 133/173/8
f 134/171/8 132/174/8 128/175/8 130/176/8
f 109/152/1 140/177/1 139/178/1 111/149/1
f 111/149/2 139/178/2 138/179/2 115/150/2
f 115/150/3 138/179/3 137/180/3 113/151/3
f 113/151/4 137/180/4 140/177/4 109/152/4
f 172/181/1 142/182/1 144/183/1 171/184/1
f 171/184/2 144/183/2 148/185/2 170/186/2
f 170/186/3 148/185/3 146/187/3 169/188/3
f 169/188/4 146/187/4 142/182/4 172/181/4
f 143/189/5 147/190/5 145/191/5 141/192/5
f 148/193/6 144/194/6 142/195/6 146/196/6
f 151/197/7 157/198/7 153/199/7 149/200/7
f 156/201/7 154/202/7 155/203/7 158/204/7
f 158/204/7 155/203/7 153/199/7 157/198/7
f 156/201/7 152/205/7 150/206/7 154/202/7
f 161/207/8 159/208/8 163/209/8 167/210/8
f 166/211/8 168/212/8 165/213/8 164/214/8
f 168/212/8 167/210/8 163/209/8 165/213/8
f 166/211/8 164/214/8 160/215/8 162/216/8
f 141/192/1 172/217/1 171/218/1 143/189/1
f 143/189/2 171/218/2 170/219/2 147/190/2
f 147/190/3 170/219/3 169/220/3 145/191/3
f 145/191/4 169/220/4 172/217/4 141/192/4
f 204/221/1 174/222/1 176/223/1 203/224/1
f 203/224/2 176/223/2 180/225/2 202/226/2
f 202/226/3 180/225/3 178/227/3 201/228/3
f 201/228/4 178/227/4 174/222/4 204/221/4
f 175/229/5 179/230/5 177/231/5 173/232/5
f 180/233/6 176/234/6 174/235/6 178/236/6
f 183/237/7 189/238/7 185/239/7 181/240/7
f 188/241/7 186/242/7 187/243/7 190/244/7
f 190/244/7 187/243/7 185/239/7 189/238/7
f 188/241/7 184/245/7 182/246/7 186/242/7
f 193/247/8 191/248/8 195/249/8 199/250/8
f 198/251/8 200/252/8 197/253/8 196/254/8
f 200/252/8 199/250/8 195/249/8 197/253/8
f 198/251/8 196/254/8 192/255/8 194/256/8
f 173/232/1 204/257/1 203/258/1 175/229/1
f 175/229/2 203/258/2 202/259/2 179/230/2
f 179/230/3 202/259/3 201/260/3 177/231/3
f 177/231/4 201/260/4 204/257/4 173/232/4
