# Blender v3.6.5 OBJ File: 'Enviro03.blend'
# www.blender.org
mtllib Tower_Block_Platform_6x10.mtl
o Tower_Block_Platform_6x10
v 8.258912 0.150001 4.955358
v 8.258912 0.150001 3.303573
v -8.258915 0.149999 4.955358
v -8.258915 0.150001 3.303573
v -6.607131 0.150001 3.303573
v -3.303565 0.150001 3.303573
v 0.000000 0.150001 4.955358
v 1.651783 0.150001 4.955358
v 3.303566 0.150001 3.303573
v 4.955348 0.150001 4.955358
v 6.607132 0.150001 3.303573
v -6.607132 0.150001 4.955358
v -4.955348 0.150001 4.955358
v -3.303565 0.150001 4.955358
v -1.651782 0.150001 4.955358
v 3.303566 0.150001 4.955358
v 6.607131 0.150001 4.955358
v 8.258911 0.150001 -3.303559
v 8.258911 0.150001 -4.955342
v -1.651784 0.150003 3.303573
v -0.000001 0.150003 3.303573
v 8.258914 0.150001 1.651790
v -4.955348 0.150001 3.303573
v 1.651782 0.150003 3.303573
v 4.955348 0.150003 3.303573
v 3.303565 0.150001 1.651790
v -8.258914 0.149999 0.000007
v -8.258914 0.149999 -1.651776
v -6.607131 0.149999 -1.651776
v -6.607131 0.149999 0.000007
v -4.955348 0.150001 0.000007
v -4.955348 0.150001 -1.651776
v -3.303566 0.150001 -1.651776
v -0.000001 0.150001 0.000007
v -1.651783 0.150001 -1.651776
v -0.000001 0.150001 -1.651776
v 1.651782 0.150001 -1.651778
v 1.651782 0.150001 0.000007
v 4.955348 0.150001 0.000007
v 3.303565 0.150001 -1.651778
v 4.955348 0.150001 -1.651778
v 6.607131 0.150001 0.000007
v 6.607131 0.150001 -1.651776
v 8.258915 0.150001 0.000007
v 8.258915 0.150001 -1.651776
v -8.258916 0.149999 -3.303559
v -8.258916 0.150001 -4.955342
v -6.607132 0.150001 -4.955342
v -4.955348 0.150001 -4.955342
v -3.303566 0.150001 -4.955342
v -1.651783 0.150001 -4.955342
v -0.000001 0.150001 -3.303559
v -0.000000 0.150001 -4.955342
v 1.651782 0.150001 -3.303559
v 1.651782 0.150001 -4.955342
v 3.303565 0.150001 -4.955342
v 4.955348 0.150001 -3.303559
v 4.955348 0.150001 -4.955342
v 6.607131 0.150001 -4.955342
v -8.258915 0.149999 1.651790
v -6.607131 0.149999 1.651790
v -4.955348 0.149999 1.651790
v -3.303566 0.150001 1.651790
v -3.303566 0.150001 0.000007
v -1.651783 0.150001 0.000007
v -1.651783 0.150001 1.651790
v -0.000001 0.150001 1.651790
v 1.651782 0.150001 1.651790
v 3.303565 0.150001 0.000007
v 4.955348 0.150001 1.651790
v 6.607132 0.150001 1.651790
v -6.607133 0.150001 -3.303559
v -4.955348 0.150001 -3.303559
v -3.303566 0.150001 -3.303559
v -1.651783 0.150001 -3.303559
v 3.303565 0.150001 -3.303559
v 6.607131 0.150001 -3.303559
v -8.258915 -0.149999 3.303573
v -4.955348 -0.149999 4.955358
v -8.258914 -0.150001 -1.651776
v -8.258916 -0.149999 -4.955342
v -4.955348 -0.149999 -4.955342
v -0.000000 -0.149999 -4.955342
v -8.258915 -0.150001 1.651790
v 8.258913 -0.150000 -4.955341
v 8.258913 -0.150000 -3.303557
v -8.258914 -0.150000 -3.303557
v -6.607131 -0.150000 -3.303557
v -3.303564 -0.150000 -3.303557
v 1.651784 -0.150000 -4.955341
v 3.303567 -0.150000 -3.303557
v 4.955349 -0.150000 -4.955341
v 6.607133 -0.150000 -3.303557
v -6.607131 -0.150000 -4.955341
v -3.303564 -0.150000 -4.955341
v -1.651781 -0.150000 -4.955341
v 3.303567 -0.150000 -4.955341
v 6.607132 -0.150000 -4.955341
v 8.258912 -0.150001 3.303575
v 8.258912 -0.150001 4.955358
v -1.651783 -0.150002 -3.303557
v 0.000000 -0.150002 -3.303557
v 8.258915 -0.150001 -1.651774
v -4.955348 -0.150000 -3.303557
v 1.651783 -0.150002 -3.303557
v 4.955348 -0.150002 -3.303557
v 3.303566 -0.150001 -1.651774
v -8.258913 -0.149999 0.000009
v -6.607131 -0.149999 1.651792
v -6.607131 -0.149999 0.000009
v -4.955348 -0.150001 0.000009
v -4.955348 -0.150001 1.651792
v -3.303565 -0.150001 1.651792
v 0.000000 -0.150001 0.000009
v -1.651782 -0.150001 1.651792
v 0.000000 -0.150001 1.651792
v 1.651783 -0.150001 1.651793
v 1.651783 -0.150001 0.000009
v 4.955348 -0.150001 0.000009
v 3.303566 -0.150001 1.651793
v 4.955348 -0.150001 1.651793
v 6.607131 -0.150001 0.000009
v 6.607131 -0.150001 1.651792
v 8.258916 -0.150001 0.000009
v 8.258916 -0.150001 1.651792
v -8.258915 -0.150001 4.955358
v -6.607131 -0.150001 4.955358
v -3.303565 -0.150001 4.955358
v -1.651782 -0.150001 4.955358
v 0.000000 -0.150001 3.303575
v 0.000000 -0.150001 4.955358
v 1.651783 -0.150001 3.303575
v 1.651783 -0.150001 4.955358
v 3.303566 -0.150001 4.955358
v 4.955348 -0.150001 3.303575
v 4.955349 -0.150001 4.955358
v 6.607132 -0.150001 4.955358
v -6.607131 -0.149999 -1.651774
v -4.955348 -0.149999 -1.651774
v -3.303565 -0.150001 -1.651774
v -3.303565 -0.150001 0.000009
v -1.651783 -0.150001 0.000009
v -1.651783 -0.150001 -1.651774
v 0.000000 -0.150001 -1.651774
v 1.651783 -0.150001 -1.651774
v 3.303566 -0.150001 0.000009
v 4.955348 -0.150001 -1.651774
v 6.607133 -0.150001 -1.651774
v -6.607132 -0.150001 3.303575
v -4.955348 -0.150001 3.303575
v -3.303565 -0.150001 3.303575
v -1.651782 -0.150001 3.303575
v 3.303566 -0.150001 3.303575
v 6.607131 -0.150001 3.303575
vt 0.564063 0.064269
vt 0.749077 0.064269
vt 0.749077 0.249283
vt 0.564063 0.249283
vt 0.564063 0.064269
vt 0.749077 0.064269
vt 0.749077 0.249283
vt 0.564063 0.249283
vt 0.564063 0.064269
vt 0.749077 0.064269
vt 0.749077 0.249283
vt 0.564063 0.249283
vt 0.564063 0.064269
vt 0.749077 0.064269
vt 0.749077 0.249283
vt 0.564063 0.249283
vt 0.564063 0.064269
vt 0.749077 0.064269
vt 0.749077 0.249283
vt 0.564063 0.249283
vt 0.564063 0.064269
vt 0.749077 0.064269
vt 0.749077 0.249283
vt 0.564063 0.249283
vt 0.564063 0.064269
vt 0.749077 0.064269
vt 0.749077 0.249283
vt 0.564063 0.249283
vt 0.564063 0.064269
vt 0.749077 0.064269
vt 0.749077 0.249283
vt 0.564063 0.249283
vt 0.564063 0.064269
vt 0.749077 0.064269
vt 0.749077 0.249283
vt 0.564063 0.249283
vt 0.564063 0.064269
vt 0.749077 0.064269
vt 0.749077 0.249283
vt 0.564063 0.249283
vt 0.564063 0.064269
vt 0.749077 0.064269
vt 0.749077 0.249283
vt 0.564063 0.249283
vt 0.564063 0.064269
vt 0.749077 0.064269
vt 0.749077 0.249283
vt 0.564063 0.249283
vt 0.564063 0.064269
vt 0.749077 0.064269
vt 0.749077 0.249283
vt 0.564063 0.249283
vt 0.564063 0.064269
vt 0.749077 0.064269
vt 0.749077 0.249283
vt 0.564063 0.249283
vt 0.564063 0.064269
vt 0.749077 0.064269
vt 0.749077 0.249283
vt 0.564063 0.249283
vt 0.564063 0.064269
vt 0.749077 0.064269
vt 0.749077 0.249283
vt 0.564063 0.249283
vt 0.564063 0.064269
vt 0.749077 0.064269
vt 0.749077 0.249283
vt 0.564063 0.249283
vt 0.564063 0.064269
vt 0.749077 0.064269
vt 0.749077 0.249283
vt 0.564063 0.249283
vt 0.564063 0.064269
vt 0.749077 0.064269
vt 0.749077 0.249283
vt 0.564063 0.249283
vt 0.564063 0.064269
vt 0.749077 0.064269
vt 0.749077 0.249283
vt 0.564063 0.249283
vt 0.564063 0.064269
vt 0.749077 0.064269
vt 0.749077 0.249283
vt 0.564063 0.249283
vt 0.564063 0.064269
vt 0.749077 0.064269
vt 0.749077 0.249283
vt 0.564063 0.249283
vt 0.564063 0.064269
vt 0.749077 0.064269
vt 0.749077 0.249283
vt 0.564063 0.249283
vt 0.564063 0.064269
vt 0.749077 0.064269
vt 0.749077 0.249283
vt 0.564063 0.249283
vt 0.564063 0.064269
vt 0.749077 0.064269
vt 0.749077 0.249283
vt 0.564063 0.249283
vt 0.564063 0.064269
vt 0.749077 0.064269
vt 0.749077 0.249283
vt 0.564063 0.249283
vt 0.564063 0.064269
vt 0.749077 0.064269
vt 0.749077 0.249283
vt 0.564063 0.249283
vt 0.564063 0.064269
vt 0.749077 0.064269
vt 0.749077 0.249283
vt 0.564063 0.249283
vt 0.564063 0.064269
vt 0.749077 0.064269
vt 0.749077 0.249283
vt 0.564063 0.249283
vt 0.564063 0.064269
vt 0.749077 0.064269
vt 0.749077 0.249283
vt 0.564063 0.249283
vt 0.564063 0.064269
vt 0.749077 0.064269
vt 0.749077 0.249283
vt 0.564063 0.249283
vt 0.564063 0.064269
vt 0.749077 0.064269
vt 0.749077 0.249283
vt 0.564063 0.249283
vt 0.564063 0.064269
vt 0.749077 0.064269
vt 0.749077 0.249283
vt 0.564063 0.249283
vt 0.564063 0.064269
vt 0.749077 0.064269
vt 0.749077 0.249283
vt 0.564063 0.249283
vt 0.564063 0.064269
vt 0.749077 0.064269
vt 0.749077 0.249283
vt 0.564063 0.249283
vt 0.564063 0.064269
vt 0.749077 0.064269
vt 0.749077 0.249283
vt 0.564063 0.249283
vt 0.564063 0.064269
vt 0.749077 0.064269
vt 0.749077 0.249283
vt 0.564063 0.249283
vt 0.564063 0.064269
vt 0.749077 0.064269
vt 0.749077 0.249283
vt 0.564063 0.249283
vt 0.564063 0.064269
vt 0.749077 0.064269
vt 0.749077 0.249283
vt 0.564063 0.249283
vt 0.564063 0.064269
vt 0.749077 0.064269
vt 0.749077 0.249283
vt 0.564063 0.249283
vt 0.564063 0.064269
vt 0.749077 0.064269
vt 0.749077 0.249283
vt 0.564063 0.249283
vt 0.564063 0.064269
vt 0.749077 0.064269
vt 0.749077 0.249283
vt 0.564063 0.249283
vt 0.564063 0.064269
vt 0.749077 0.064269
vt 0.749077 0.249283
vt 0.564063 0.249283
vt 0.564063 0.064269
vt 0.749077 0.064269
vt 0.749077 0.249283
vt 0.564063 0.249283
vt 0.564063 0.064269
vt 0.749077 0.064269
vt 0.749077 0.249283
vt 0.564063 0.249283
vt 0.564063 0.064269
vt 0.749077 0.064269
vt 0.749077 0.249283
vt 0.564063 0.249283
vt 0.564063 0.064269
vt 0.749077 0.064269
vt 0.749077 0.249283
vt 0.564063 0.249283
vt 0.564063 0.064269
vt 0.749077 0.064269
vt 0.749077 0.249283
vt 0.564063 0.249283
vt 0.564063 0.064269
vt 0.749077 0.064269
vt 0.749077 0.249283
vt 0.564063 0.249283
vt 0.564063 0.064269
vt 0.749077 0.064269
vt 0.749077 0.249283
vt 0.564063 0.249283
vt 0.564063 0.064269
vt 0.749077 0.064269
vt 0.749077 0.249283
vt 0.564063 0.249283
vt 0.564063 0.064269
vt 0.749077 0.064269
vt 0.749077 0.249283
vt 0.564063 0.249283
vt 0.564063 0.064269
vt 0.749077 0.064269
vt 0.749077 0.249283
vt 0.564063 0.249283
vt 0.564063 0.064269
vt 0.749077 0.064269
vt 0.749077 0.249283
vt 0.564063 0.249283
vt 0.564063 0.064269
vt 0.749077 0.064269
vt 0.749077 0.249283
vt 0.564063 0.249283
vt 0.564063 0.064269
vt 0.749077 0.064269
vt 0.749077 0.249283
vt 0.564063 0.249283
vt 0.564063 0.064269
vt 0.749077 0.064269
vt 0.749077 0.249283
vt 0.564063 0.249283
vt 0.564063 0.064269
vt 0.749077 0.064269
vt 0.749077 0.249283
vt 0.564063 0.249283
vt 0.564063 0.064269
vt 0.749077 0.064269
vt 0.749077 0.249283
vt 0.564063 0.249283
vt 0.564063 0.064269
vt 0.749077 0.064269
vt 0.749077 0.249283
vt 0.564063 0.249283
vt 0.000529 0.062255
vt 0.185932 0.062255
vt 0.185932 0.032252
vt 0.000529 0.032252
vt 0.000529 0.062255
vt 0.185932 0.062255
vt 0.185932 0.032252
vt 0.000529 0.032252
vt 0.000529 0.062255
vt 0.185932 0.062255
vt 0.185932 0.032252
vt 0.000529 0.032252
vt 0.000529 0.062255
vt 0.185932 0.062255
vt 0.185932 0.032252
vt 0.000529 0.032252
vt 0.000529 0.062255
vt 0.185932 0.062255
vt 0.185932 0.032252
vt 0.000529 0.032252
vt 0.000529 0.062255
vt 0.185932 0.062255
vt 0.185932 0.032252
vt 0.000529 0.032252
vt 0.000529 0.062255
vt 0.185932 0.062255
vt 0.185932 0.032252
vt 0.000529 0.032252
vt 0.000529 0.062255
vt 0.185932 0.062255
vt 0.185932 0.032252
vt 0.000529 0.032252
vt 0.000529 0.062255
vt 0.185932 0.062255
vt 0.185932 0.032252
vt 0.000529 0.032252
vt 0.000529 0.062255
vt 0.185932 0.062255
vt 0.185932 0.032252
vt 0.000529 0.032252
vt 0.000529 0.062255
vt 0.185932 0.062255
vt 0.185932 0.032252
vt 0.000529 0.032252
vt 0.000529 0.062255
vt 0.185932 0.062255
vt 0.185932 0.032252
vt 0.000529 0.032252
vt 0.000529 0.062255
vt 0.185932 0.062255
vt 0.185932 0.032252
vt 0.000529 0.032252
vt 0.000529 0.062255
vt 0.185932 0.062255
vt 0.185932 0.032252
vt 0.000529 0.032252
vt 0.000529 0.062255
vt 0.185932 0.062255
vt 0.185932 0.032252
vt 0.000529 0.032252
vt 0.000529 0.062255
vt 0.185932 0.062255
vt 0.185932 0.032252
vt 0.000529 0.032252
vt 0.000529 0.062255
vt 0.185932 0.062255
vt 0.185932 0.032252
vt 0.000529 0.032252
vt 0.000529 0.062255
vt 0.185932 0.062255
vt 0.185932 0.032252
vt 0.000529 0.032252
vt 0.000529 0.062255
vt 0.185932 0.062255
vt 0.185932 0.032252
vt 0.000529 0.032252
vt 0.000529 0.062255
vt 0.185932 0.062255
vt 0.185932 0.032252
vt 0.000529 0.032252
vt 0.000529 0.062255
vt 0.185932 0.062255
vt 0.185932 0.032252
vt 0.000529 0.032252
vt 0.000529 0.062255
vt 0.185932 0.062255
vt 0.185932 0.032252
vt 0.000529 0.032252
vt 0.000529 0.062255
vt 0.185932 0.062255
vt 0.185932 0.032252
vt 0.000529 0.032252
vt 0.000529 0.062255
vt 0.185932 0.062255
vt 0.185932 0.032252
vt 0.000529 0.032252
vt 0.000529 0.062255
vt 0.185932 0.062255
vt 0.185932 0.032252
vt 0.000529 0.032252
vt 0.000529 0.062255
vt 0.185932 0.062255
vt 0.185932 0.032252
vt 0.000529 0.032252
vt 0.000529 0.062255
vt 0.185932 0.062255
vt 0.185932 0.032252
vt 0.000529 0.032252
vt 0.000529 0.062255
vt 0.185932 0.062255
vt 0.185932 0.032252
vt 0.000529 0.032252
vt 0.000529 0.062255
vt 0.185932 0.062255
vt 0.185932 0.032252
vt 0.000529 0.032252
vt 0.000529 0.062255
vt 0.185932 0.062255
vt 0.185932 0.032252
vt 0.000529 0.032252
vt 0.000529 0.062255
vt 0.185932 0.062255
vt 0.185932 0.032252
vt 0.000529 0.032252
vt 0.000529 0.062255
vt 0.185932 0.062255
vt 0.185932 0.032252
vt 0.000529 0.032252
vt 0.564063 0.064269
vt 0.749077 0.064269
vt 0.749077 0.249283
vt 0.564063 0.249283
vt 0.564063 0.064269
vt 0.749077 0.064269
vt 0.749077 0.249283
vt 0.564063 0.249283
vt 0.564063 0.064269
vt 0.749077 0.064269
vt 0.749077 0.249283
vt 0.564063 0.249283
vt 0.564063 0.064269
vt 0.749077 0.064269
vt 0.749077 0.249283
vt 0.564063 0.249283
vt 0.564063 0.064269
vt 0.749077 0.064269
vt 0.749077 0.249283
vt 0.564063 0.249283
vt 0.564063 0.064269
vt 0.749077 0.064269
vt 0.749077 0.249283
vt 0.564063 0.249283
vt 0.564063 0.064269
vt 0.749077 0.064269
vt 0.749077 0.249283
vt 0.564063 0.249283
vt 0.564063 0.064269
vt 0.749077 0.064269
vt 0.749077 0.249283
vt 0.564063 0.249283
vt 0.564063 0.064269
vt 0.749077 0.064269
vt 0.749077 0.249283
vt 0.564063 0.249283
vt 0.564063 0.064269
vt 0.749077 0.064269
vt 0.749077 0.249283
vt 0.564063 0.249283
vt 0.564063 0.064269
vt 0.749077 0.064269
vt 0.749077 0.249283
vt 0.564063 0.249283
vt 0.564063 0.064269
vt 0.749077 0.064269
vt 0.749077 0.249283
vt 0.564063 0.249283
vt 0.564063 0.064269
vt 0.749077 0.064269
vt 0.749077 0.249283
vt 0.564063 0.249283
vt 0.564063 0.064269
vt 0.749077 0.064269
vt 0.749077 0.249283
vt 0.564063 0.249283
vt 0.564063 0.064269
vt 0.749077 0.064269
vt 0.749077 0.249283
vt 0.564063 0.249283
vt 0.564063 0.064269
vt 0.749077 0.064269
vt 0.749077 0.249283
vt 0.564063 0.249283
vt 0.564063 0.064269
vt 0.749077 0.064269
vt 0.749077 0.249283
vt 0.564063 0.249283
vt 0.564063 0.064269
vt 0.749077 0.064269
vt 0.749077 0.249283
vt 0.564063 0.249283
vt 0.564063 0.064269
vt 0.749077 0.064269
vt 0.749077 0.249283
vt 0.564063 0.249283
vt 0.564063 0.064269
vt 0.749077 0.064269
vt 0.749077 0.249283
vt 0.564063 0.249283
vt 0.564063 0.064269
vt 0.749077 0.064269
vt 0.749077 0.249283
vt 0.564063 0.249283
vt 0.564063 0.064269
vt 0.749077 0.064269
vt 0.749077 0.249283
vt 0.564063 0.249283
vt 0.564063 0.064269
vt 0.749077 0.064269
vt 0.749077 0.249283
vt 0.564063 0.249283
vt 0.564063 0.064269
vt 0.749077 0.064269
vt 0.749077 0.249283
vt 0.564063 0.249283
vt 0.564063 0.064269
vt 0.749077 0.064269
vt 0.749077 0.249283
vt 0.564063 0.249283
vt 0.564063 0.064269
vt 0.749077 0.064269
vt 0.749077 0.249283
vt 0.564063 0.249283
vt 0.564063 0.064269
vt 0.749077 0.064269
vt 0.749077 0.249283
vt 0.564063 0.249283
vt 0.564063 0.064269
vt 0.749077 0.064269
vt 0.749077 0.249283
vt 0.564063 0.249283
vt 0.564063 0.064269
vt 0.749077 0.064269
vt 0.749077 0.249283
vt 0.564063 0.249283
vt 0.564063 0.064269
vt 0.749077 0.064269
vt 0.749077 0.249283
vt 0.564063 0.249283
vt 0.564063 0.064269
vt 0.749077 0.064269
vt 0.749077 0.249283
vt 0.564063 0.249283
vt 0.564063 0.064269
vt 0.749077 0.064269
vt 0.749077 0.249283
vt 0.564063 0.249283
vt 0.564063 0.064269
vt 0.749077 0.064269
vt 0.749077 0.249283
vt 0.564063 0.249283
vt 0.564063 0.064269
vt 0.749077 0.064269
vt 0.749077 0.249283
vt 0.564063 0.249283
vt 0.564063 0.064269
vt 0.749077 0.064269
vt 0.749077 0.249283
vt 0.564063 0.249283
vt 0.564063 0.064269
vt 0.749077 0.064269
vt 0.749077 0.249283
vt 0.564063 0.249283
vt 0.564063 0.064269
vt 0.749077 0.064269
vt 0.749077 0.249283
vt 0.564063 0.249283
vt 0.564063 0.064269
vt 0.749077 0.064269
vt 0.749077 0.249283
vt 0.564063 0.249283
vt 0.564063 0.064269
vt 0.749077 0.064269
vt 0.749077 0.249283
vt 0.564063 0.249283
vt 0.564063 0.064269
vt 0.749077 0.064269
vt 0.749077 0.249283
vt 0.564063 0.249283
vt 0.564063 0.064269
vt 0.749077 0.064269
vt 0.749077 0.249283
vt 0.564063 0.249283
vt 0.564063 0.064269
vt 0.749077 0.064269
vt 0.749077 0.249283
vt 0.564063 0.249283
vt 0.564063 0.064269
vt 0.749077 0.064269
vt 0.749077 0.249283
vt 0.564063 0.249283
vt 0.564063 0.064269
vt 0.749077 0.064269
vt 0.749077 0.249283
vt 0.564063 0.249283
vt 0.564063 0.064269
vt 0.749077 0.064269
vt 0.749077 0.249283
vt 0.564063 0.249283
vt 0.564063 0.064269
vt 0.749077 0.064269
vt 0.749077 0.249283
vt 0.564063 0.249283
vt 0.564063 0.064269
vt 0.749077 0.064269
vt 0.749077 0.249283
vt 0.564063 0.249283
vt 0.564063 0.064269
vt 0.749077 0.064269
vt 0.749077 0.249283
vt 0.564063 0.249283
vt 0.564063 0.064269
vt 0.749077 0.064269
vt 0.749077 0.249283
vt 0.564063 0.249283
vt 0.564063 0.064269
vt 0.749077 0.064269
vt 0.749077 0.249283
vt 0.564063 0.249283
vt 0.564063 0.064269
vt 0.749077 0.064269
vt 0.749077 0.249283
vt 0.564063 0.249283
vt 0.564063 0.064269
vt 0.749077 0.064269
vt 0.749077 0.249283
vt 0.564063 0.249283
vt 0.564063 0.064269
vt 0.749077 0.064269
vt 0.749077 0.249283
vt 0.564063 0.249283
vt 0.564063 0.064269
vt 0.749077 0.064269
vt 0.749077 0.249283
vt 0.564063 0.249283
vt 0.564063 0.064269
vt 0.749077 0.064269
vt 0.749077 0.249283
vt 0.564063 0.249283
vt 0.564063 0.064269
vt 0.749077 0.064269
vt 0.749077 0.249283
vt 0.564063 0.249283
vt 0.564063 0.064269
vt 0.749077 0.064269
vt 0.749077 0.249283
vt 0.564063 0.249283
vt 0.564063 0.064269
vt 0.749077 0.064269
vt 0.749077 0.249283
vt 0.564063 0.249283
vt 0.564063 0.064269
vt 0.749077 0.064269
vt 0.749077 0.249283
vt 0.564063 0.249283
vt 0.564063 0.064269
vt 0.749077 0.064269
vt 0.749077 0.249283
vt 0.564063 0.249283
vn 0.0000 1.0000 0.0000
vn 0.0000 -0.0000 -1.0000
vn -1.0000 -0.0000 0.0000
vn 0.0000 0.0000 1.0000
vn 1.0000 0.0000 0.0000
vn 0.0000 -1.0000 -0.0000
usemtl Mat_Enviro_Atlas.001
s off
f 17/1/1 1/2/1 2/3/1 11/4/1
f 3/5/1 12/6/1 5/7/1 4/8/1
f 12/9/1 13/10/1 23/11/1 5/12/1
f 13/13/1 14/14/1 6/15/1 23/16/1
f 14/17/1 15/18/1 20/19/1 6/20/1
f 15/21/1 7/22/1 21/23/1 20/24/1
f 7/25/1 8/26/1 24/27/1 21/28/1
f 8/29/1 16/30/1 9/31/1 24/32/1
f 16/33/1 10/34/1 25/35/1 9/36/1
f 10/37/1 17/38/1 11/39/1 25/40/1
f 77/41/1 18/42/1 19/43/1 59/44/1
f 4/45/1 5/46/1 61/47/1 60/48/1
f 23/49/1 6/50/1 63/51/1 62/52/1
f 6/53/1 20/54/1 66/55/1 63/56/1
f 20/57/1 21/58/1 67/59/1 66/60/1
f 24/61/1 9/62/1 26/63/1 68/64/1
f 25/65/1 11/66/1 71/67/1 70/68/1
f 11/69/1 2/70/1 22/71/1 71/72/1
f 5/73/1 23/74/1 62/75/1 61/76/1
f 21/77/1 24/78/1 68/79/1 67/80/1
f 9/81/1 25/82/1 70/83/1 26/84/1
f 27/85/1 30/86/1 29/87/1 28/88/1
f 30/89/1 31/90/1 32/91/1 29/92/1
f 31/93/1 64/94/1 33/95/1 32/96/1
f 64/97/1 65/98/1 35/99/1 33/100/1
f 65/101/1 34/102/1 36/103/1 35/104/1
f 34/105/1 38/106/1 37/107/1 36/108/1
f 38/109/1 69/110/1 40/111/1 37/112/1
f 69/113/1 39/114/1 41/115/1 40/116/1
f 39/117/1 42/118/1 43/119/1 41/120/1
f 42/121/1 44/122/1 45/123/1 43/124/1
f 46/125/1 72/126/1 48/127/1 47/128/1
f 72/129/1 73/130/1 49/131/1 48/132/1
f 73/133/1 74/134/1 50/135/1 49/136/1
f 74/137/1 75/138/1 51/139/1 50/140/1
f 75/141/1 52/142/1 53/143/1 51/144/1
f 52/145/1 54/146/1 55/147/1 53/148/1
f 54/149/1 76/150/1 56/151/1 55/152/1
f 76/153/1 57/154/1 58/155/1 56/156/1
f 57/157/1 77/158/1 59/159/1 58/160/1
f 60/161/1 61/162/1 30/163/1 27/164/1
f 61/165/1 62/166/1 31/167/1 30/168/1
f 62/169/1 63/170/1 64/171/1 31/172/1
f 63/173/1 66/174/1 65/175/1 64/176/1
f 66/177/1 67/178/1 34/179/1 65/180/1
f 67/181/1 68/182/1 38/183/1 34/184/1
f 68/185/1 26/186/1 69/187/1 38/188/1
f 26/189/1 70/190/1 39/191/1 69/192/1
f 70/193/1 71/194/1 42/195/1 39/196/1
f 71/197/1 22/198/1 44/199/1 42/200/1
f 28/201/1 29/202/1 72/203/1 46/204/1
f 29/205/1 32/206/1 73/207/1 72/208/1
f 32/209/1 33/210/1 74/211/1 73/212/1
f 33/213/1 35/214/1 75/215/1 74/216/1
f 35/217/1 36/218/1 52/219/1 75/220/1
f 36/221/1 37/222/1 54/223/1 52/224/1
f 37/225/1 40/226/1 76/227/1 54/228/1
f 40/229/1 41/230/1 57/231/1 76/232/1
f 41/233/1 43/234/1 77/235/1 57/236/1
f 43/237/1 45/238/1 18/239/1 77/240/1
f 56/241/2 58/242/2 92/243/2 97/244/2
f 46/245/3 47/246/3 81/247/3 87/248/3
f 47/249/2 48/250/2 94/251/2 81/252/2
f 10/253/4 16/254/4 134/255/4 136/256/4
f 13/257/4 12/258/4 127/259/4 79/260/4
f 58/261/2 59/262/2 98/263/2 92/264/2
f 50/265/2 51/266/2 96/267/2 95/268/2
f 49/269/2 50/270/2 95/271/2 82/272/2
f 17/273/4 10/274/4 136/275/4 137/276/4
f 60/277/3 27/278/3 108/279/3 84/280/3
f 19/281/5 18/282/5 86/283/5 85/284/5
f 1/285/4 17/286/4 137/287/4 100/288/4
f 55/289/2 56/290/2 97/291/2 90/292/2
f 27/293/3 28/294/3 80/295/3 108/296/3
f 12/297/4 3/298/4 126/299/4 127/300/4
f 51/301/2 53/302/2 83/303/2 96/304/2
f 14/305/4 13/306/4 79/307/4 128/308/4
f 22/309/5 2/310/5 99/311/5 125/312/5
f 4/313/3 60/314/3 84/315/3 78/316/3
f 53/317/2 55/318/2 90/319/2 83/320/2
f 18/321/5 45/322/5 103/323/5 86/324/5
f 15/325/4 14/326/4 128/327/4 129/328/4
f 7/329/4 15/330/4 129/331/4 131/332/4
f 8/333/4 7/334/4 131/335/4 133/336/4
f 44/337/5 22/338/5 125/339/5 124/340/5
f 2/341/5 1/342/5 100/343/5 99/344/5
f 45/345/5 44/346/5 124/347/5 103/348/5
f 48/349/2 49/350/2 82/351/2 94/352/2
f 16/353/4 8/354/4 133/355/4 134/356/4
f 28/357/3 46/358/3 87/359/3 80/360/3
f 59/361/2 19/362/2 85/363/2 98/364/2
f 3/365/3 4/366/3 78/367/3 126/368/3
f 98/369/6 85/370/6 86/371/6 93/372/6
f 81/373/6 94/374/6 88/375/6 87/376/6
f 94/377/6 82/378/6 104/379/6 88/380/6
f 82/381/6 95/382/6 89/383/6 104/384/6
f 95/385/6 96/386/6 101/387/6 89/388/6
f 96/389/6 83/390/6 102/391/6 101/392/6
f 83/393/6 90/394/6 105/395/6 102/396/6
f 90/397/6 97/398/6 91/399/6 105/400/6
f 97/401/6 92/402/6 106/403/6 91/404/6
f 92/405/6 98/406/6 93/407/6 106/408/6
f 154/409/6 99/410/6 100/411/6 137/412/6
f 87/413/6 88/414/6 138/415/6 80/416/6
f 104/417/6 89/418/6 140/419/6 139/420/6
f 89/421/6 101/422/6 143/423/6 140/424/6
f 101/425/6 102/426/6 144/427/6 143/428/6
f 105/429/6 91/430/6 107/431/6 145/432/6
f 106/433/6 93/434/6 148/435/6 147/436/6
f 93/437/6 86/438/6 103/439/6 148/440/6
f 88/441/6 104/442/6 139/443/6 138/444/6
f 102/445/6 105/446/6 145/447/6 144/448/6
f 91/449/6 106/450/6 147/451/6 107/452/6
f 108/453/6 110/454/6 109/455/6 84/456/6
f 110/457/6 111/458/6 112/459/6 109/460/6
f 111/461/6 141/462/6 113/463/6 112/464/6
f 141/465/6 142/466/6 115/467/6 113/468/6
f 142/469/6 114/470/6 116/471/6 115/472/6
f 114/473/6 118/474/6 117/475/6 116/476/6
f 118/477/6 146/478/6 120/479/6 117/480/6
f 146/481/6 119/482/6 121/483/6 120/484/6
f 119/485/6 122/486/6 123/487/6 121/488/6
f 122/489/6 124/490/6 125/491/6 123/492/6
f 78/493/6 149/494/6 127/495/6 126/496/6
f 149/497/6 150/498/6 79/499/6 127/500/6
f 150/501/6 151/502/6 128/503/6 79/504/6
f 151/505/6 152/506/6 129/507/6 128/508/6
f 152/509/6 130/510/6 131/511/6 129/512/6
f 130/513/6 132/514/6 133/515/6 131/516/6
f 132/517/6 153/518/6 134/519/6 133/520/6
f 153/521/6 135/522/6 136/523/6 134/524/6
f 135/525/6 154/526/6 137/527/6 136/528/6
f 80/529/6 138/530/6 110/531/6 108/532/6
f 138/533/6 139/534/6 111/535/6 110/536/6
f 139/537/6 140/538/6 141/539/6 111/540/6
f 140/541/6 143/542/6 142/543/6 141/544/6
f 143/545/6 144/546/6 114/547/6 142/548/6
f 144/549/6 145/550/6 118/551/6 114/552/6
f 145/553/6 107/554/6 146/555/6 118/556/6
f 107/557/6 147/558/6 119/559/6 146/560/6
f 147/561/6 148/562/6 122/563/6 119/564/6
f 148/565/6 103/566/6 124/567/6 122/568/6
f 84/569/6 109/570/6 149/571/6 78/572/6
f 109/573/6 112/574/6 150/575/6 149/576/6
f 112/577/6 113/578/6 151/579/6 150/580/6
f 113/581/6 115/582/6 152/583/6 151/584/6
f 115/585/6 116/586/6 130/587/6 152/588/6
f 116/589/6 117/590/6 132/591/6 130/592/6
f 117/593/6 120/594/6 153/595/6 132/596/6
f 120/597/6 121/598/6 135/599/6 153/600/6
f 121/601/6 123/602/6 154/603/6 135/604/6
f 123/605/6 125/606/6 99/607/6 154/608/6
