# Blender v3.6.5 OBJ File: 'Enviro05.blend'
# www.blender.org
mtllib Tower_Block_ChainFence3.mtl
o Tower_Block_ChainFence3
v 0.002929 1.652676 2.477674
v 0.002931 0.000895 2.477674
v 0.002929 0.000895 0.825891
v 0.002929 1.652678 -0.825892
v 0.002929 1.652678 -2.477674
v 0.002929 0.000893 -0.825891
v 0.002929 0.000893 -2.477674
v 0.002929 1.652676 0.825891
v -0.002930 1.652676 2.477674
v -0.002928 0.000895 2.477674
v -0.002930 0.000895 0.825891
v -0.002930 1.652678 -0.825892
v -0.002930 1.652678 -2.477674
v -0.002930 0.000893 -0.825891
v -0.002930 0.000893 -2.477674
v -0.002930 1.652676 0.825891
vt 0.751844 0.998949
vt 0.751844 0.814477
vt 0.936316 0.814477
vt 0.936316 0.998949
vt 0.751844 0.998949
vt 0.751844 0.814477
vt 0.936316 0.814477
vt 0.936316 0.998949
vt 0.751844 0.998949
vt 0.751844 0.814477
vt 0.936316 0.814477
vt 0.936316 0.998949
vt 0.751844 0.998949
vt 0.936316 0.998949
vt 0.936316 0.814477
vt 0.751844 0.814477
vt 0.751844 0.998949
vt 0.936316 0.998949
vt 0.936316 0.814477
vt 0.751844 0.814477
vt 0.751844 0.998949
vt 0.936316 0.998949
vt 0.936316 0.814477
vt 0.751844 0.814477
vn 1.0000 0.0000 -0.0000
vn -1.0000 -0.0000 0.0000
usemtl Mat_Enviro_Atlas
s off
f 1/1/1 2/2/1 3/3/1 8/4/1
f 4/5/1 6/6/1 7/7/1 5/8/1
f 8/9/1 3/10/1 6/11/1 4/12/1
f 9/13/2 16/14/2 11/15/2 10/16/2
f 12/17/2 13/18/2 15/19/2 14/20/2
f 16/21/2 12/22/2 14/23/2 11/24/2
