# Blender v3.6.5 OBJ File: 'Enviro03.blend'
# www.blender.org
mtllib Tower_Block_Platform_3x3.mtl
o Tower_Block_Platform_3x3
v -2.477673 0.149999 0.825893
v -0.825890 0.149999 0.825893
v 0.825893 0.150001 0.825893
v 2.477676 0.150001 0.825893
v -2.477674 0.149999 -0.825890
v -2.477674 0.150001 -2.477673
v -0.825890 0.150001 -2.477673
v 0.825893 0.150001 -2.477673
v 2.477676 0.150001 2.477676
v -0.825891 0.150001 -0.825890
v 0.825893 0.150001 -0.825890
v -2.477673 -0.150001 0.825893
v -2.477674 -0.149999 -2.477673
v 0.825893 -0.149999 -2.477673
v -2.477673 -0.150001 -0.825890
v -0.825890 -0.150001 -0.825890
v -0.825890 -0.150001 -2.477673
v 0.825893 -0.150001 -0.825890
v -2.477671 -0.149999 2.477678
v 2.477673 -0.149999 -2.477673
v 0.825891 -0.150001 2.477676
v -0.825890 -0.149999 0.825895
v 0.825893 -0.149999 0.825895
v 2.477676 -0.150001 2.477678
v 2.477674 -0.150001 0.825893
v -0.825891 -0.149999 2.477676
v 2.477674 -0.150001 -0.825890
v -2.477673 0.150001 2.477678
v -0.825891 0.150001 2.477676
v 0.825893 0.150001 2.477676
v 2.477674 0.149999 -0.825890
v 2.477673 0.149999 -2.477673
vt 0.564063 0.064269
vt 0.749077 0.064269
vt 0.749077 0.249283
vt 0.564063 0.249283
vt 0.564063 0.064269
vt 0.749077 0.064269
vt 0.749077 0.249283
vt 0.564063 0.249283
vt 0.564063 0.064269
vt 0.749077 0.064269
vt 0.749077 0.249283
vt 0.564063 0.249283
vt 0.564063 0.064269
vt 0.749077 0.064269
vt 0.749077 0.249283
vt 0.564063 0.249283
vt 0.564063 0.064269
vt 0.749077 0.064269
vt 0.749077 0.249283
vt 0.564063 0.249283
vt 0.564063 0.064269
vt 0.749077 0.064269
vt 0.749077 0.249283
vt 0.564063 0.249283
vt 0.564063 0.064269
vt 0.749077 0.064269
vt 0.749077 0.249283
vt 0.564063 0.249283
vt 0.564063 0.064269
vt 0.749077 0.064269
vt 0.749077 0.249283
vt 0.564063 0.249283
vt 0.564063 0.064269
vt 0.749077 0.064269
vt 0.749077 0.249283
vt 0.564063 0.249283
vt 0.000529 0.062255
vt 0.185932 0.062255
vt 0.185932 0.032252
vt 0.000529 0.032252
vt 0.000529 0.062255
vt 0.185932 0.062255
vt 0.185932 0.032252
vt 0.000529 0.032252
vt 0.000529 0.062255
vt 0.185932 0.062255
vt 0.185932 0.032252
vt 0.000529 0.032252
vt 0.000529 0.062255
vt 0.185932 0.062255
vt 0.185932 0.032252
vt 0.000529 0.032252
vt 0.000529 0.062255
vt 0.185932 0.062255
vt 0.185932 0.032252
vt 0.000529 0.032252
vt 0.000529 0.062255
vt 0.185932 0.062255
vt 0.185932 0.032252
vt 0.000529 0.032252
vt 0.564063 0.064269
vt 0.749077 0.064269
vt 0.749077 0.249283
vt 0.564063 0.249283
vt 0.564063 0.064269
vt 0.749077 0.064269
vt 0.749077 0.249283
vt 0.564063 0.249283
vt 0.564063 0.064269
vt 0.749077 0.064269
vt 0.749077 0.249283
vt 0.564063 0.249283
vt 0.564063 0.064269
vt 0.749077 0.064269
vt 0.749077 0.249283
vt 0.564063 0.249283
vt 0.564063 0.064269
vt 0.749077 0.064269
vt 0.749077 0.249283
vt 0.564063 0.249283
vt 0.564063 0.064269
vt 0.749077 0.064269
vt 0.749077 0.249283
vt 0.564063 0.249283
vt 0.564063 0.064269
vt 0.749077 0.064269
vt 0.749077 0.249283
vt 0.564063 0.249283
vt 0.564063 0.064269
vt 0.749077 0.064269
vt 0.749077 0.249283
vt 0.564063 0.249283
vt 0.564063 0.064269
vt 0.749077 0.064269
vt 0.749077 0.249283
vt 0.564063 0.249283
vt 0.000529 0.062255
vt 0.185932 0.062255
vt 0.185932 0.032252
vt 0.000529 0.032252
vt 0.000529 0.062255
vt 0.185932 0.062255
vt 0.185932 0.032252
vt 0.000529 0.032252
vt 0.000529 0.062255
vt 0.185932 0.062255
vt 0.185932 0.032252
vt 0.000529 0.032252
vt 0.000529 0.062255
vt 0.185932 0.062255
vt 0.185932 0.032252
vt 0.000529 0.032252
vt 0.000529 0.062255
vt 0.185932 0.062255
vt 0.185932 0.032252
vt 0.000529 0.032252
vt 0.000529 0.062255
vt 0.185932 0.062255
vt 0.185932 0.032252
vt 0.000529 0.032252
vn -0.0000 1.0000 -0.0000
vn -1.0000 -0.0000 0.0000
vn 0.0000 0.0000 -1.0000
vn -0.0000 -1.0000 -0.0000
vn 1.0000 -0.0000 -0.0000
vn 0.0000 0.0000 1.0000
usemtl Mat_Enviro_Atlas.001
s off
f 28/1/1 29/2/1 2/3/1 1/4/1
f 29/5/1 30/6/1 3/7/1 2/8/1
f 30/9/1 9/10/1 4/11/1 3/12/1
f 5/13/1 10/14/1 7/15/1 6/16/1
f 10/17/1 11/18/1 8/19/1 7/20/1
f 11/21/1 31/22/1 32/23/1 8/24/1
f 1/25/1 2/26/1 10/27/1 5/28/1
f 2/29/1 3/30/1 11/31/1 10/32/1
f 3/33/1 4/34/1 31/35/1 11/36/1
f 5/37/2 6/38/2 13/39/2 15/40/2
f 6/41/3 7/42/3 17/43/3 13/44/3
f 8/45/3 32/46/3 20/47/3 14/48/3
f 28/49/2 1/50/2 12/51/2 19/52/2
f 7/53/3 8/54/3 14/55/3 17/56/3
f 1/57/2 5/58/2 15/59/2 12/60/2
f 13/61/4 17/62/4 16/63/4 15/64/4
f 17/65/4 14/66/4 18/67/4 16/68/4
f 14/69/4 20/70/4 27/71/4 18/72/4
f 15/73/4 16/74/4 22/75/4 12/76/4
f 18/77/4 27/78/4 25/79/4 23/80/4
f 16/81/4 18/82/4 23/83/4 22/84/4
f 12/85/4 22/86/4 26/87/4 19/88/4
f 22/89/4 23/90/4 21/91/4 26/92/4
f 23/93/4 25/94/4 24/95/4 21/96/4
f 31/97/5 4/98/5 25/99/5 27/100/5
f 30/101/6 29/102/6 26/103/6 21/104/6
f 32/105/5 31/106/5 27/107/5 20/108/5
f 29/109/6 28/110/6 19/111/6 26/112/6
f 9/113/6 30/114/6 21/115/6 24/116/6
f 4/117/5 9/118/5 24/119/5 25/120/5
