# Blender v3.6.5 OBJ File: 'Enviro03.blend'
# www.blender.org
mtllib Tower_Block_Platform_1x10.mtl
o Tower_Block_Platform_1x10
v -8.258916 0.149999 0.825889
v 8.258911 0.150001 0.825891
v 8.258911 0.150001 -0.825892
v -8.258916 0.150001 -0.825892
v -6.607132 0.150001 -0.825892
v -4.955348 0.150001 -0.825892
v -3.303566 0.150001 -0.825892
v -1.651783 0.150001 -0.825892
v -0.000000 0.150001 0.825891
v -0.000000 0.150001 -0.825892
v 1.651782 0.150001 0.825891
v 1.651782 0.150001 -0.825892
v 3.303565 0.150001 -0.825892
v 4.955348 0.150001 0.825891
v 4.955348 0.150001 -0.825892
v 6.607131 0.150001 -0.825892
v -6.607133 0.150001 0.825891
v -4.955348 0.150001 0.825891
v -3.303566 0.150001 0.825891
v -1.651783 0.150001 0.825891
v 3.303565 0.150001 0.825891
v 6.607131 0.150001 0.825891
v -8.258916 -0.149999 -0.825892
v -4.955348 -0.149999 -0.825892
v -0.000000 -0.149999 -0.825892
v 8.258913 -0.150000 -0.825891
v 8.258913 -0.150000 0.825892
v -8.258914 -0.150000 0.825892
v -6.607131 -0.150000 0.825892
v -3.303564 -0.150000 0.825892
v 1.651784 -0.150000 -0.825891
v 3.303567 -0.150000 0.825892
v 4.955349 -0.150000 -0.825891
v -6.607131 -0.150000 -0.825891
v -3.303564 -0.150000 -0.825891
v -1.651781 -0.150000 -0.825891
v 3.303567 -0.150000 -0.825891
v 6.607132 -0.150000 -0.825891
v -1.651783 -0.150002 0.825892
v 0.000000 -0.150002 0.825892
v -4.955348 -0.150000 0.825892
v 1.651783 -0.150002 0.825892
v 4.955348 -0.150002 0.825892
v 6.607131 -0.150001 0.825889
vt 0.564063 0.064269
vt 0.749077 0.064269
vt 0.749077 0.249283
vt 0.564063 0.249283
vt 0.564063 0.064269
vt 0.749077 0.064269
vt 0.749077 0.249283
vt 0.564063 0.249283
vt 0.564063 0.064269
vt 0.749077 0.064269
vt 0.749077 0.249283
vt 0.564063 0.249283
vt 0.564063 0.064269
vt 0.749077 0.064269
vt 0.749077 0.249283
vt 0.564063 0.249283
vt 0.564063 0.064269
vt 0.749077 0.064269
vt 0.749077 0.249283
vt 0.564063 0.249283
vt 0.564063 0.064269
vt 0.749077 0.064269
vt 0.749077 0.249283
vt 0.564063 0.249283
vt 0.564063 0.064269
vt 0.749077 0.064269
vt 0.749077 0.249283
vt 0.564063 0.249283
vt 0.564063 0.064269
vt 0.749077 0.064269
vt 0.749077 0.249283
vt 0.564063 0.249283
vt 0.564063 0.064269
vt 0.749077 0.064269
vt 0.749077 0.249283
vt 0.564063 0.249283
vt 0.564063 0.064269
vt 0.749077 0.064269
vt 0.749077 0.249283
vt 0.564063 0.249283
vt 0.000529 0.062255
vt 0.185932 0.062255
vt 0.185932 0.032252
vt 0.000529 0.032252
vt 0.000529 0.062255
vt 0.185932 0.062255
vt 0.185932 0.032252
vt 0.000529 0.032252
vt 0.000529 0.062255
vt 0.185932 0.062255
vt 0.185932 0.032252
vt 0.000529 0.032252
vt 0.000529 0.062255
vt 0.185932 0.062255
vt 0.185932 0.032252
vt 0.000529 0.032252
vt 0.000529 0.062255
vt 0.185932 0.062255
vt 0.185932 0.032252
vt 0.000529 0.032252
vt 0.000529 0.062255
vt 0.185932 0.062255
vt 0.185932 0.032252
vt 0.000529 0.032252
vt 0.000529 0.062255
vt 0.185932 0.062255
vt 0.185932 0.032252
vt 0.000529 0.032252
vt 0.000529 0.062255
vt 0.185932 0.062255
vt 0.185932 0.032252
vt 0.000529 0.032252
vt 0.000529 0.062255
vt 0.185932 0.062255
vt 0.185932 0.032252
vt 0.000529 0.032252
vt 0.000529 0.062255
vt 0.185932 0.062255
vt 0.185932 0.032252
vt 0.000529 0.032252
vt 0.000529 0.062255
vt 0.185932 0.062255
vt 0.185932 0.032252
vt 0.000529 0.032252
vt 0.000529 0.062255
vt 0.185932 0.062255
vt 0.185932 0.032252
vt 0.000529 0.032252
vt 0.000529 0.062255
vt 0.185932 0.062255
vt 0.185932 0.032252
vt 0.000529 0.032252
vt 0.000529 0.062255
vt 0.185932 0.062255
vt 0.185932 0.032252
vt 0.000529 0.032252
vt 0.000529 0.062255
vt 0.185932 0.062255
vt 0.185932 0.032252
vt 0.000529 0.032252
vt 0.000529 0.062255
vt 0.185932 0.062255
vt 0.185932 0.032252
vt 0.000529 0.032252
vt 0.000529 0.062255
vt 0.185932 0.062255
vt 0.185932 0.032252
vt 0.000529 0.032252
vt 0.000529 0.062255
vt 0.185932 0.062255
vt 0.185932 0.032252
vt 0.000529 0.032252
vt 0.000529 0.062255
vt 0.185932 0.062255
vt 0.185932 0.032252
vt 0.000529 0.032252
vt 0.000529 0.062255
vt 0.185932 0.062255
vt 0.185932 0.032252
vt 0.000529 0.032252
vt 0.000529 0.062255
vt 0.185932 0.062255
vt 0.185932 0.032252
vt 0.000529 0.032252
vt 0.000529 0.062255
vt 0.185932 0.062255
vt 0.185932 0.032252
vt 0.000529 0.032252
vt 0.564063 0.064269
vt 0.749077 0.064269
vt 0.749077 0.249283
vt 0.564063 0.249283
vt 0.564063 0.064269
vt 0.749077 0.064269
vt 0.749077 0.249283
vt 0.564063 0.249283
vt 0.564063 0.064269
vt 0.749077 0.064269
vt 0.749077 0.249283
vt 0.564063 0.249283
vt 0.564063 0.064269
vt 0.749077 0.064269
vt 0.749077 0.249283
vt 0.564063 0.249283
vt 0.564063 0.064269
vt 0.749077 0.064269
vt 0.749077 0.249283
vt 0.564063 0.249283
vt 0.564063 0.064269
vt 0.749077 0.064269
vt 0.749077 0.249283
vt 0.564063 0.249283
vt 0.564063 0.064269
vt 0.749077 0.064269
vt 0.749077 0.249283
vt 0.564063 0.249283
vt 0.564063 0.064269
vt 0.749077 0.064269
vt 0.749077 0.249283
vt 0.564063 0.249283
vt 0.564063 0.064269
vt 0.749077 0.064269
vt 0.749077 0.249283
vt 0.564063 0.249283
vt 0.564063 0.064269
vt 0.749077 0.064269
vt 0.749077 0.249283
vt 0.564063 0.249283
vn 0.0000 1.0000 0.0000
vn 0.0000 -0.0000 -1.0000
vn -1.0000 -0.0000 0.0000
vn -0.0000 0.0000 1.0000
vn 1.0000 0.0000 0.0000
vn 0.0000 -1.0000 -0.0000
usemtl Mat_Enviro_Atlas.001
s off
f 22/1/1 2/2/1 3/3/1 16/4/1
f 1/5/1 17/6/1 5/7/1 4/8/1
f 17/9/1 18/10/1 6/11/1 5/12/1
f 18/13/1 19/14/1 7/15/1 6/16/1
f 19/17/1 20/18/1 8/19/1 7/20/1
f 20/21/1 9/22/1 10/23/1 8/24/1
f 9/25/1 11/26/1 12/27/1 10/28/1
f 11/29/1 21/30/1 13/31/1 12/32/1
f 21/33/1 14/34/1 15/35/1 13/36/1
f 14/37/1 22/38/1 16/39/1 15/40/1
f 13/41/2 15/42/2 33/43/2 37/44/2
f 1/45/3 4/46/3 23/47/3 28/48/3
f 4/49/2 5/50/2 34/51/2 23/52/2
f 14/53/4 21/54/4 32/55/4 43/56/4
f 18/57/4 17/58/4 29/59/4 41/60/4
f 15/61/2 16/62/2 38/63/2 33/64/2
f 7/65/2 8/66/2 36/67/2 35/68/2
f 6/69/2 7/70/2 35/71/2 24/72/2
f 22/73/4 14/74/4 43/75/4 44/76/4
f 3/77/5 2/78/5 27/79/5 26/80/5
f 2/81/4 22/82/4 44/83/4 27/84/4
f 12/85/2 13/86/2 37/87/2 31/88/2
f 17/89/4 1/90/4 28/91/4 29/92/4
f 8/93/2 10/94/2 25/95/2 36/96/2
f 19/97/4 18/98/4 41/99/4 30/100/4
f 10/101/2 12/102/2 31/103/2 25/104/2
f 20/105/4 19/106/4 30/107/4 39/108/4
f 9/109/4 20/110/4 39/111/4 40/112/4
f 11/113/4 9/114/4 40/115/4 42/116/4
f 5/117/2 6/118/2 24/119/2 34/120/2
f 21/121/4 11/122/4 42/123/4 32/124/4
f 16/125/2 3/126/2 26/127/2 38/128/2
f 38/129/6 26/130/6 27/131/6 44/132/6
f 23/133/6 34/134/6 29/135/6 28/136/6
f 34/137/6 24/138/6 41/139/6 29/140/6
f 24/141/6 35/142/6 30/143/6 41/144/6
f 35/145/6 36/146/6 39/147/6 30/148/6
f 36/149/6 25/150/6 40/151/6 39/152/6
f 25/153/6 31/154/6 42/155/6 40/156/6
f 31/157/6 37/158/6 32/159/6 42/160/6
f 37/161/6 33/162/6 43/163/6 32/164/6
f 33/165/6 38/166/6 44/167/6 43/168/6
