# Blender v3.6.5 OBJ File: 'Enviro05.blend'
# www.blender.org
mtllib Tower_Block_ChainFence6.mtl
o Tower_Block_ChainFence6
v 0.002930 1.676051 3.303566
v 0.002928 0.024271 -3.303566
v 0.002928 0.024271 -4.955349
v 0.002930 0.024268 1.651783
v 0.002930 1.676051 -0.000000
v 0.002928 1.676051 -1.651783
v 0.002930 0.024268 -0.000000
v 0.002930 0.024268 -1.651783
v 0.002928 1.676051 -4.955349
v 0.002930 1.676051 1.651783
v 0.002928 1.676051 -3.303566
v -0.002929 0.024269 3.303566
v -0.002931 0.024271 -3.303566
v -0.002931 0.024271 -4.955349
v -0.002929 0.024268 1.651783
v -0.002929 1.676051 -0.000000
v -0.002931 1.676051 -1.651783
v -0.002929 0.024268 -0.000000
v -0.002929 0.024268 -1.651783
v -0.002931 1.676051 -4.955349
v -0.002929 1.676051 1.651783
v -0.002931 1.676051 -3.303566
v 0.002930 0.024269 4.955348
v 0.002930 1.676051 4.955348
v 0.002930 0.024268 3.303566
v -0.002929 0.024269 4.955348
v -0.002929 1.676051 4.955348
v -0.002929 1.676051 3.303566
vt 0.751844 0.998949
vt 0.751844 0.814477
vt 0.936316 0.814477
vt 0.936316 0.998949
vt 0.751844 0.998949
vt 0.751844 0.814477
vt 0.936316 0.814477
vt 0.936316 0.998949
vt 0.751844 0.998949
vt 0.751844 0.814477
vt 0.936316 0.814477
vt 0.936316 0.998949
vt 0.751844 0.998949
vt 0.751844 0.814477
vt 0.936316 0.814477
vt 0.936316 0.998949
vt 0.751844 0.998949
vt 0.751844 0.814477
vt 0.936316 0.814477
vt 0.936316 0.998949
vt 0.751844 0.998949
vt 0.936316 0.998949
vt 0.936316 0.814477
vt 0.751844 0.814477
vt 0.751844 0.998949
vt 0.936316 0.998949
vt 0.936316 0.814477
vt 0.751844 0.814477
vt 0.751844 0.998949
vt 0.936316 0.998949
vt 0.936316 0.814477
vt 0.751844 0.814477
vt 0.751844 0.998949
vt 0.936316 0.998949
vt 0.936316 0.814477
vt 0.751844 0.814477
vt 0.751844 0.998949
vt 0.936316 0.998949
vt 0.936316 0.814477
vt 0.751844 0.814477
vt 0.751844 0.998949
vt 0.751844 0.814477
vt 0.936316 0.814477
vt 0.936316 0.998949
vt 0.751844 0.998949
vt 0.936316 0.998949
vt 0.936316 0.814477
vt 0.751844 0.814477
vn 1.0000 0.0000 0.0000
vn -1.0000 0.0000 0.0000
usemtl Mat_Enviro_Atlas
s off
f 11/1/1 2/2/1 3/3/1 9/4/1
f 1/5/1 25/6/1 4/7/1 10/8/1
f 5/9/1 7/10/1 8/11/1 6/12/1
f 10/13/1 4/14/1 7/15/1 5/16/1
f 6/17/1 8/18/1 2/19/1 11/20/1
f 22/21/2 20/22/2 14/23/2 13/24/2
f 28/25/2 21/26/2 15/27/2 12/28/2
f 16/29/2 17/30/2 19/31/2 18/32/2
f 21/33/2 16/34/2 18/35/2 15/36/2
f 17/37/2 22/38/2 13/39/2 19/40/2
f 24/41/1 23/42/1 25/43/1 1/44/1
f 27/45/2 28/46/2 12/47/2 26/48/2
